<svg xmlns="http://www.w3.org/2000/svg" xmlns:dc="http://purl.org/dc/elements/1.1/" xmlns:ns2="http://creativecommons.org/ns#" xmlns:rdf="http://www.w3.org/1999/02/22-rdf-syntax-ns#" xmlns:xlink="http://www.w3.org/1999/xlink" width="335.0" height="308.0" viewBox="0.0 0.0 334.5 307.5">
<g id="graph0" class="graph" transform="scale(1.0 1.0) rotate(0) translate(4 303.5)">
<title>G</title>
<polygon fill="white" stroke="transparent" points="-4,4 -4,-303.5 330.5,-303.5 330.5,4 -4,4" />
<text text-anchor="middle" x="163.25" y="-284.3" font-family="Arial" font-size="14.00" fill="#444443">F1-score: 0.5</text>
<g id="clust3" class="cluster">
<title>cluster_legend</title>
</g>

<g id="node1" class="node">
<title>node1</title>
<svg height="85px" version="1.1" viewBox="0 0 203.342389 113.51625" width="153px" preserveAspectRatio="xMinYMin meet" x="4.5" y="-160.5">
 <metadata>
  <rdf:RDF>
   <ns2:Work>
    <dc:type rdf:resource="http://purl.org/dc/dcmitype/StillImage" />
    <dc:date>2021-04-15T14:35:45.630114</dc:date>
    <dc:format>image/svg+xml</dc:format>
    <dc:creator>
     <ns2:Agent>
      <dc:title>Matplotlib v3.3.4, https://matplotlib.org/</dc:title>
     </ns2:Agent>
    </dc:creator>
   </ns2:Work>
  </rdf:RDF>
 </metadata>
 <defs>
  <style type="text/css">*{stroke-linecap:butt;stroke-linejoin:round;}</style>
 </defs>
 <g id="figure_1">
  <g id="patch_1">
   <path d="M 0 113.51625  L 203.342389 113.51625  L 203.342389 -0  L 0 -0  z " style="fill:#ffffff;" />
  </g>
  <g id="axes_1">
   <g id="patch_2">
    <path d="M 17.18 83.16  L 201.32 83.16  L 201.32 -0  L 17.18 -0  z " style="fill:#ffffff;" />
   </g>
   <g id="patch_3">
    <path clip-path="url(#p415d6f559a)" d="M 18.385746 83.16  L 27.517609 83.16  L 27.517609 77.88  L 18.385746 77.88  z " style="fill:#fefebb;stroke:#444443;stroke-linejoin:miter;stroke-width:0.5;" />
   </g>
   <g id="patch_4">
    <path clip-path="url(#p415d6f559a)" d="M 27.517609 83.16  L 36.649471 83.16  L 36.649471 77.88  L 27.517609 77.88  z " style="fill:#fefebb;stroke:#444443;stroke-linejoin:miter;stroke-width:0.5;" />
   </g>
   <g id="patch_5">
    <path clip-path="url(#p415d6f559a)" d="M 36.649471 83.16  L 45.781334 83.16  L 45.781334 77.88  L 36.649471 77.88  z " style="fill:#fefebb;stroke:#444443;stroke-linejoin:miter;stroke-width:0.5;" />
   </g>
   <g id="patch_6">
    <path clip-path="url(#p415d6f559a)" d="M 45.781334 83.16  L 54.913197 83.16  L 54.913197 77.88  L 45.781334 77.88  z " style="fill:#fefebb;stroke:#444443;stroke-linejoin:miter;stroke-width:0.5;" />
   </g>
   <g id="patch_7">
    <path clip-path="url(#p415d6f559a)" d="M 54.913197 83.16  L 64.04506 83.16  L 64.04506 83.16  L 54.913197 83.16  z " style="fill:#fefebb;stroke:#444443;stroke-linejoin:miter;stroke-width:0.5;" />
   </g>
   <g id="patch_8">
    <path clip-path="url(#p415d6f559a)" d="M 64.04506 83.16  L 73.176923 83.16  L 73.176923 77.88  L 64.04506 77.88  z " style="fill:#fefebb;stroke:#444443;stroke-linejoin:miter;stroke-width:0.5;" />
   </g>
   <g id="patch_9">
    <path clip-path="url(#p415d6f559a)" d="M 73.176923 83.16  L 82.308785 83.16  L 82.308785 83.16  L 73.176923 83.16  z " style="fill:#fefebb;stroke:#444443;stroke-linejoin:miter;stroke-width:0.5;" />
   </g>
   <g id="patch_10">
    <path clip-path="url(#p415d6f559a)" d="M 82.308785 83.16  L 91.440648 83.16  L 91.440648 83.16  L 82.308785 83.16  z " style="fill:#fefebb;stroke:#444443;stroke-linejoin:miter;stroke-width:0.5;" />
   </g>
   <g id="patch_11">
    <path clip-path="url(#p415d6f559a)" d="M 91.440648 83.16  L 100.572511 83.16  L 100.572511 72.6  L 91.440648 72.6  z " style="fill:#fefebb;stroke:#444443;stroke-linejoin:miter;stroke-width:0.5;" />
   </g>
   <g id="patch_12">
    <path clip-path="url(#p415d6f559a)" d="M 100.572511 83.16  L 109.704374 83.16  L 109.704374 51.48  L 100.572511 51.48  z " style="fill:#fefebb;stroke:#444443;stroke-linejoin:miter;stroke-width:0.5;" />
   </g>
   <g id="patch_13">
    <path clip-path="url(#p415d6f559a)" d="M 109.704374 83.16  L 118.836237 83.16  L 118.836237 19.8  L 109.704374 19.8  z " style="fill:#fefebb;stroke:#444443;stroke-linejoin:miter;stroke-width:0.5;" />
   </g>
   <g id="patch_14">
    <path clip-path="url(#p415d6f559a)" d="M 118.836237 83.16  L 127.9681 83.16  L 127.9681 19.8  L 118.836237 19.8  z " style="fill:#fefebb;stroke:#444443;stroke-linejoin:miter;stroke-width:0.5;" />
   </g>
   <g id="patch_15">
    <path clip-path="url(#p415d6f559a)" d="M 127.9681 83.16  L 137.099962 83.16  L 137.099962 62.04  L 127.9681 62.04  z " style="fill:#fefebb;stroke:#444443;stroke-linejoin:miter;stroke-width:0.5;" />
   </g>
   <g id="patch_16">
    <path clip-path="url(#p415d6f559a)" d="M 137.099962 83.16  L 146.231825 83.16  L 146.231825 72.6  L 137.099962 72.6  z " style="fill:#fefebb;stroke:#444443;stroke-linejoin:miter;stroke-width:0.5;" />
   </g>
   <g id="patch_17">
    <path clip-path="url(#p415d6f559a)" d="M 146.231825 83.16  L 155.363688 83.16  L 155.363688 77.88  L 146.231825 77.88  z " style="fill:#fefebb;stroke:#444443;stroke-linejoin:miter;stroke-width:0.5;" />
   </g>
   <g id="patch_18">
    <path clip-path="url(#p415d6f559a)" d="M 155.363688 83.16  L 164.495551 83.16  L 164.495551 77.88  L 155.363688 77.88  z " style="fill:#fefebb;stroke:#444443;stroke-linejoin:miter;stroke-width:0.5;" />
   </g>
   <g id="patch_19">
    <path clip-path="url(#p415d6f559a)" d="M 164.495551 83.16  L 173.627414 83.16  L 173.627414 83.16  L 164.495551 83.16  z " style="fill:#fefebb;stroke:#444443;stroke-linejoin:miter;stroke-width:0.5;" />
   </g>
   <g id="patch_20">
    <path clip-path="url(#p415d6f559a)" d="M 173.627414 83.16  L 182.759276 83.16  L 182.759276 83.16  L 173.627414 83.16  z " style="fill:#fefebb;stroke:#444443;stroke-linejoin:miter;stroke-width:0.5;" />
   </g>
   <g id="patch_21">
    <path clip-path="url(#p415d6f559a)" d="M 182.759276 83.16  L 191.891139 83.16  L 191.891139 72.6  L 182.759276 72.6  z " style="fill:#fefebb;stroke:#444443;stroke-linejoin:miter;stroke-width:0.5;" />
   </g>
   <g id="patch_22">
    <path clip-path="url(#p415d6f559a)" d="M 18.385746 77.88  L 27.517609 77.88  L 27.517609 77.88  L 18.385746 77.88  z " style="fill:#a1dab4;stroke:#444443;stroke-linejoin:miter;stroke-width:0.5;" />
   </g>
   <g id="patch_23">
    <path clip-path="url(#p415d6f559a)" d="M 27.517609 77.88  L 36.649471 77.88  L 36.649471 77.88  L 27.517609 77.88  z " style="fill:#a1dab4;stroke:#444443;stroke-linejoin:miter;stroke-width:0.5;" />
   </g>
   <g id="patch_24">
    <path clip-path="url(#p415d6f559a)" d="M 36.649471 77.88  L 45.781334 77.88  L 45.781334 77.88  L 36.649471 77.88  z " style="fill:#a1dab4;stroke:#444443;stroke-linejoin:miter;stroke-width:0.5;" />
   </g>
   <g id="patch_25">
    <path clip-path="url(#p415d6f559a)" d="M 45.781334 77.88  L 54.913197 77.88  L 54.913197 77.88  L 45.781334 77.88  z " style="fill:#a1dab4;stroke:#444443;stroke-linejoin:miter;stroke-width:0.5;" />
   </g>
   <g id="patch_26">
    <path clip-path="url(#p415d6f559a)" d="M 54.913197 83.16  L 64.04506 83.16  L 64.04506 83.16  L 54.913197 83.16  z " style="fill:#a1dab4;stroke:#444443;stroke-linejoin:miter;stroke-width:0.5;" />
   </g>
   <g id="patch_27">
    <path clip-path="url(#p415d6f559a)" d="M 64.04506 77.88  L 73.176923 77.88  L 73.176923 77.88  L 64.04506 77.88  z " style="fill:#a1dab4;stroke:#444443;stroke-linejoin:miter;stroke-width:0.5;" />
   </g>
   <g id="patch_28">
    <path clip-path="url(#p415d6f559a)" d="M 73.176923 83.16  L 82.308785 83.16  L 82.308785 83.16  L 73.176923 83.16  z " style="fill:#a1dab4;stroke:#444443;stroke-linejoin:miter;stroke-width:0.5;" />
   </g>
   <g id="patch_29">
    <path clip-path="url(#p415d6f559a)" d="M 82.308785 83.16  L 91.440648 83.16  L 91.440648 83.16  L 82.308785 83.16  z " style="fill:#a1dab4;stroke:#444443;stroke-linejoin:miter;stroke-width:0.5;" />
   </g>
   <g id="patch_30">
    <path clip-path="url(#p415d6f559a)" d="M 91.440648 72.6  L 100.572511 72.6  L 100.572511 72.6  L 91.440648 72.6  z " style="fill:#a1dab4;stroke:#444443;stroke-linejoin:miter;stroke-width:0.5;" />
   </g>
   <g id="patch_31">
    <path clip-path="url(#p415d6f559a)" d="M 100.572511 51.48  L 109.704374 51.48  L 109.704374 51.48  L 100.572511 51.48  z " style="fill:#a1dab4;stroke:#444443;stroke-linejoin:miter;stroke-width:0.5;" />
   </g>
   <g id="patch_32">
    <path clip-path="url(#p415d6f559a)" d="M 109.704374 19.8  L 118.836237 19.8  L 118.836237 19.8  L 109.704374 19.8  z " style="fill:#a1dab4;stroke:#444443;stroke-linejoin:miter;stroke-width:0.5;" />
   </g>
   <g id="patch_33">
    <path clip-path="url(#p415d6f559a)" d="M 118.836237 19.8  L 127.9681 19.8  L 127.9681 3.96  L 118.836237 3.96  z " style="fill:#a1dab4;stroke:#444443;stroke-linejoin:miter;stroke-width:0.5;" />
   </g>
   <g id="patch_34">
    <path clip-path="url(#p415d6f559a)" d="M 127.9681 62.04  L 137.099962 62.04  L 137.099962 56.76  L 127.9681 56.76  z " style="fill:#a1dab4;stroke:#444443;stroke-linejoin:miter;stroke-width:0.5;" />
   </g>
   <g id="patch_35">
    <path clip-path="url(#p415d6f559a)" d="M 137.099962 72.6  L 146.231825 72.6  L 146.231825 72.6  L 137.099962 72.6  z " style="fill:#a1dab4;stroke:#444443;stroke-linejoin:miter;stroke-width:0.5;" />
   </g>
   <g id="patch_36">
    <path clip-path="url(#p415d6f559a)" d="M 146.231825 77.88  L 155.363688 77.88  L 155.363688 77.88  L 146.231825 77.88  z " style="fill:#a1dab4;stroke:#444443;stroke-linejoin:miter;stroke-width:0.5;" />
   </g>
   <g id="patch_37">
    <path clip-path="url(#p415d6f559a)" d="M 155.363688 77.88  L 164.495551 77.88  L 164.495551 77.88  L 155.363688 77.88  z " style="fill:#a1dab4;stroke:#444443;stroke-linejoin:miter;stroke-width:0.5;" />
   </g>
   <g id="patch_38">
    <path clip-path="url(#p415d6f559a)" d="M 164.495551 83.16  L 173.627414 83.16  L 173.627414 83.16  L 164.495551 83.16  z " style="fill:#a1dab4;stroke:#444443;stroke-linejoin:miter;stroke-width:0.5;" />
   </g>
   <g id="patch_39">
    <path clip-path="url(#p415d6f559a)" d="M 173.627414 83.16  L 182.759276 83.16  L 182.759276 83.16  L 173.627414 83.16  z " style="fill:#a1dab4;stroke:#444443;stroke-linejoin:miter;stroke-width:0.5;" />
   </g>
   <g id="patch_40">
    <path clip-path="url(#p415d6f559a)" d="M 182.759276 72.6  L 191.891139 72.6  L 191.891139 72.6  L 182.759276 72.6  z " style="fill:#a1dab4;stroke:#444443;stroke-linejoin:miter;stroke-width:0.5;" />
   </g>
   <g id="patch_41">
    <path d="M 118.954279 83.9916  L 115.639759 91.476  L 122.268799 91.476  z " style="fill:#444443;" />
   </g>
   <g id="matplotlib.axis_1">
    <g id="xtick_1">
     <g id="line2d_1">
      <defs>
       <path d="M 0 0  L 0 3.5  " id="m3879035e4e" style="stroke:#000000;stroke-width:0.3;" />
      </defs>
      <g>
       <use style="stroke:#000000;stroke-width:0.3;" x="18.385746" xlink:href="#m3879035e4e" y="83.16" />
      </g>
     </g>
     <g id="text_1">
      
      <g style="fill:#444443;" transform="translate(9.479496 96.23875)scale(0.08 -0.08)">
       <defs>
        <path d="M 31.78125 66.40625  Q 24.171875 66.40625 20.328125 58.90625  Q 16.5 51.421875 16.5 36.375  Q 16.5 21.390625 20.328125 13.890625  Q 24.171875 6.390625 31.78125 6.390625  Q 39.453125 6.390625 43.28125 13.890625  Q 47.125 21.390625 47.125 36.375  Q 47.125 51.421875 43.28125 58.90625  Q 39.453125 66.40625 31.78125 66.40625  z M 31.78125 74.21875  Q 44.046875 74.21875 50.515625 64.515625  Q 56.984375 54.828125 56.984375 36.375  Q 56.984375 17.96875 50.515625 8.265625  Q 44.046875 -1.421875 31.78125 -1.421875  Q 19.53125 -1.421875 13.0625 8.265625  Q 6.59375 17.96875 6.59375 36.375  Q 6.59375 54.828125 13.0625 64.515625  Q 19.53125 74.21875 31.78125 74.21875  z " id="DejaVuSans-48" />
        <path d="M 10.6875 12.40625  L 21 12.40625  L 21 0  L 10.6875 0  z " id="DejaVuSans-46" />
        <path d="M 31.78125 34.625  Q 24.75 34.625 20.71875 30.859375  Q 16.703125 27.09375 16.703125 20.515625  Q 16.703125 13.921875 20.71875 10.15625  Q 24.75 6.390625 31.78125 6.390625  Q 38.8125 6.390625 42.859375 10.171875  Q 46.921875 13.96875 46.921875 20.515625  Q 46.921875 27.09375 42.890625 30.859375  Q 38.875 34.625 31.78125 34.625  z M 21.921875 38.8125  Q 15.578125 40.375 12.03125 44.71875  Q 8.5 49.078125 8.5 55.328125  Q 8.5 64.0625 14.71875 69.140625  Q 20.953125 74.21875 31.78125 74.21875  Q 42.671875 74.21875 48.875 69.140625  Q 55.078125 64.0625 55.078125 55.328125  Q 55.078125 49.078125 51.53125 44.71875  Q 48 40.375 41.703125 38.8125  Q 48.828125 37.15625 52.796875 32.3125  Q 56.78125 27.484375 56.78125 20.515625  Q 56.78125 9.90625 50.3125 4.234375  Q 43.84375 -1.421875 31.78125 -1.421875  Q 19.734375 -1.421875 13.25 4.234375  Q 6.78125 9.90625 6.78125 20.515625  Q 6.78125 27.484375 10.78125 32.3125  Q 14.796875 37.15625 21.921875 38.8125  z M 18.3125 54.390625  Q 18.3125 48.734375 21.84375 45.5625  Q 25.390625 42.390625 31.78125 42.390625  Q 38.140625 42.390625 41.71875 45.5625  Q 45.3125 48.734375 45.3125 54.390625  Q 45.3125 60.0625 41.71875 63.234375  Q 38.140625 66.40625 31.78125 66.40625  Q 25.390625 66.40625 21.84375 63.234375  Q 18.3125 60.0625 18.3125 54.390625  z " id="DejaVuSans-56" />
        <path d="M 37.796875 64.3125  L 12.890625 25.390625  L 37.796875 25.390625  z M 35.203125 72.90625  L 47.609375 72.90625  L 47.609375 25.390625  L 58.015625 25.390625  L 58.015625 17.1875  L 47.609375 17.1875  L 47.609375 0  L 37.796875 0  L 37.796875 17.1875  L 4.890625 17.1875  L 4.890625 26.703125  z " id="DejaVuSans-52" />
       </defs>
       <use xlink:href="#DejaVuSans-48" />
       <use x="63.623047" xlink:href="#DejaVuSans-46" />
       <use x="95.410156" xlink:href="#DejaVuSans-56" />
       <use x="159.033203" xlink:href="#DejaVuSans-52" />
      </g>
     </g>
    </g>
    <g id="xtick_2">
     <g id="line2d_2">
      <g>
       <use style="stroke:#000000;stroke-width:0.3;" x="191.891139" xlink:href="#m3879035e4e" y="83.16" />
      </g>
     </g>
     <g id="text_2">
      
      <g style="fill:#444443;" transform="translate(180.439889 96.23875)scale(0.08 -0.08)">
       <defs>
        <path d="M 12.40625 8.296875  L 28.515625 8.296875  L 28.515625 63.921875  L 10.984375 60.40625  L 10.984375 69.390625  L 28.421875 72.90625  L 38.28125 72.90625  L 38.28125 8.296875  L 54.390625 8.296875  L 54.390625 0  L 12.40625 0  z " id="DejaVuSans-49" />
        <path d="M 10.796875 72.90625  L 49.515625 72.90625  L 49.515625 64.59375  L 19.828125 64.59375  L 19.828125 46.734375  Q 21.96875 47.46875 24.109375 47.828125  Q 26.265625 48.1875 28.421875 48.1875  Q 40.625 48.1875 47.75 41.5  Q 54.890625 34.8125 54.890625 23.390625  Q 54.890625 11.625 47.5625 5.09375  Q 40.234375 -1.421875 26.90625 -1.421875  Q 22.3125 -1.421875 17.546875 -0.640625  Q 12.796875 0.140625 7.71875 1.703125  L 7.71875 11.625  Q 12.109375 9.234375 16.796875 8.0625  Q 21.484375 6.890625 26.703125 6.890625  Q 35.15625 6.890625 40.078125 11.328125  Q 45.015625 15.765625 45.015625 23.390625  Q 45.015625 31 40.078125 35.4375  Q 35.15625 39.890625 26.703125 39.890625  Q 22.75 39.890625 18.8125 39.015625  Q 14.890625 38.140625 10.796875 36.28125  z " id="DejaVuSans-53" />
       </defs>
       <use xlink:href="#DejaVuSans-49" />
       <use x="63.623047" xlink:href="#DejaVuSans-48" />
       <use x="127.246094" xlink:href="#DejaVuSans-46" />
       <use x="159.033203" xlink:href="#DejaVuSans-53" />
       <use x="222.65625" xlink:href="#DejaVuSans-49" />
      </g>
     </g>
    </g>
    <g id="text_3">
     
     <g style="fill:#444443;" transform="translate(94.255625 111.020625)scale(0.12 -0.12)">
      <defs>
       <path d="M -0.296875 72.90625  L 61.375 72.90625  L 61.375 64.59375  L 35.5 64.59375  L 35.5 0  L 25.59375 0  L 25.59375 64.59375  L -0.296875 64.59375  z " id="DejaVuSans-84" />
       <path d="M 9.8125 72.90625  L 19.671875 72.90625  L 19.671875 8.296875  L 55.171875 8.296875  L 55.171875 0  L 9.8125 0  z " id="DejaVuSans-76" />
       <path d="M 44.390625 34.1875  Q 47.5625 33.109375 50.5625 29.59375  Q 53.5625 26.078125 56.59375 19.921875  L 66.609375 0  L 56 0  L 46.6875 18.703125  Q 43.0625 26.03125 39.671875 28.421875  Q 36.28125 30.8125 30.421875 30.8125  L 19.671875 30.8125  L 19.671875 0  L 9.8125 0  L 9.8125 72.90625  L 32.078125 72.90625  Q 44.578125 72.90625 50.734375 67.671875  Q 56.890625 62.453125 56.890625 51.90625  Q 56.890625 45.015625 53.6875 40.46875  Q 50.484375 35.9375 44.390625 34.1875  z M 19.671875 64.796875  L 19.671875 38.921875  L 32.078125 38.921875  Q 39.203125 38.921875 42.84375 42.21875  Q 46.484375 45.515625 46.484375 51.90625  Q 46.484375 58.296875 42.84375 61.546875  Q 39.203125 64.796875 32.078125 64.796875  z " id="DejaVuSans-82" />
      </defs>
      <use xlink:href="#DejaVuSans-84" />
      <use x="61.083984" xlink:href="#DejaVuSans-76" />
      <use x="116.796875" xlink:href="#DejaVuSans-82" />
      <use x="186.279297" xlink:href="#DejaVuSans-53" />
     </g>
    </g>
   </g>
   <g id="matplotlib.axis_2">
    <g id="ytick_1">
     <g id="line2d_3">
      <defs>
       <path d="M 0 0  L -3.5 0  " id="m994fd88cc5" style="stroke:#000000;stroke-width:0.3;" />
      </defs>
      <g>
       <use style="stroke:#000000;stroke-width:0.3;" x="17.18" xlink:href="#m994fd88cc5" y="83.16" />
      </g>
     </g>
     <g id="text_4">
      
      <g style="fill:#444443;" transform="translate(5.09 86.199375)scale(0.08 -0.08)">
       <use xlink:href="#DejaVuSans-48" />
      </g>
     </g>
    </g>
    <g id="ytick_2">
     <g id="line2d_4">
      <g>
       <use style="stroke:#000000;stroke-width:0.3;" x="17.18" xlink:href="#m994fd88cc5" y="3.96" />
      </g>
     </g>
     <g id="text_5">
      
      <g style="fill:#444443;" transform="translate(0 6.999375)scale(0.08 -0.08)">
       <use xlink:href="#DejaVuSans-49" />
       <use x="63.623047" xlink:href="#DejaVuSans-53" />
      </g>
     </g>
    </g>
   </g>
   <g id="patch_42">
    <path d="M 17.18 83.16  L 17.18 -0  " style="fill:none;stroke:#000000;stroke-linecap:square;stroke-linejoin:miter;stroke-width:0.3;" />
   </g>
   <g id="patch_43">
    <path d="M 17.18 83.16  L 201.32 83.16  " style="fill:none;stroke:#000000;stroke-linecap:square;stroke-linejoin:miter;stroke-width:0.3;" />
   </g>
   <g id="text_6">
    
    <g style="fill:#444443;" transform="translate(110.048029 99.792)scale(0.08 -0.08)">
     <defs>
      <path d="M 33.015625 40.375  Q 26.375 40.375 22.484375 35.828125  Q 18.609375 31.296875 18.609375 23.390625  Q 18.609375 15.53125 22.484375 10.953125  Q 26.375 6.390625 33.015625 6.390625  Q 39.65625 6.390625 43.53125 10.953125  Q 47.40625 15.53125 47.40625 23.390625  Q 47.40625 31.296875 43.53125 35.828125  Q 39.65625 40.375 33.015625 40.375  z M 52.59375 71.296875  L 52.59375 62.3125  Q 48.875 64.0625 45.09375 64.984375  Q 41.3125 65.921875 37.59375 65.921875  Q 27.828125 65.921875 22.671875 59.328125  Q 17.53125 52.734375 16.796875 39.40625  Q 19.671875 43.65625 24.015625 45.921875  Q 28.375 48.1875 33.59375 48.1875  Q 44.578125 48.1875 50.953125 41.515625  Q 57.328125 34.859375 57.328125 23.390625  Q 57.328125 12.15625 50.6875 5.359375  Q 44.046875 -1.421875 33.015625 -1.421875  Q 20.359375 -1.421875 13.671875 8.265625  Q 6.984375 17.96875 6.984375 36.375  Q 6.984375 53.65625 15.1875 63.9375  Q 23.390625 74.21875 37.203125 74.21875  Q 40.921875 74.21875 44.703125 73.484375  Q 48.484375 72.75 52.59375 71.296875  z " id="DejaVuSans-54" />
     </defs>
     <use xlink:href="#DejaVuSans-54" />
     <use x="63.623047" xlink:href="#DejaVuSans-46" />
     <use x="95.410156" xlink:href="#DejaVuSans-52" />
     <use x="159.033203" xlink:href="#DejaVuSans-52" />
    </g>
   </g>
  </g>
 </g>
 <defs>
  <clipPath id="p415d6f559a">
   <rect height="83.16" width="184.14" x="17.18" y="-0" />
  </clipPath>
 </defs>
</svg></g>

<g id="node3" class="node">
<title>leaf2</title>
<polygon fill="none" stroke="#444443" stroke-width="0" points="74.5,-55 34.5,-55 34.5,0 74.5,0 74.5,-55" />
<svg height="47px" version="1.1" viewBox="0 0 42.504 62.992504" width="32px" preserveAspectRatio="xMinYMin meet" x="38.5" y="-50.5">
 <metadata>
  <rdf:RDF>
   <ns2:Work>
    <dc:type rdf:resource="http://purl.org/dc/dcmitype/StillImage" />
    <dc:date>2021-04-15T14:35:45.998861</dc:date>
    <dc:format>image/svg+xml</dc:format>
    <dc:creator>
     <ns2:Agent>
      <dc:title>Matplotlib v3.3.4, https://matplotlib.org/</dc:title>
     </ns2:Agent>
    </dc:creator>
   </ns2:Work>
  </rdf:RDF>
 </metadata>
 <defs>
  <style type="text/css">*{stroke-linecap:butt;stroke-linejoin:round;}</style>
 </defs>
 <g id="figure_1">
  <g id="patch_1">
   <path d="M 0 62.992504  L 42.504 62.992504  L 42.504 0  L 0 0  z " style="fill:#ffffff;" />
  </g>
  <g id="axes_1">
   <g id="patch_2">
    <path d="M 42.504 21.252  C 42.504 18.461213 41.954276 15.697563 40.886288 13.119212  C 39.8183 10.540861 38.252818 8.197951 36.279433 6.224567  C 34.306049 4.251182 31.963139 2.6857 29.384788 1.617712  C 26.806437 0.549724 24.042787 -0 21.252 -0  C 18.461213 -0 15.697563 0.549724 13.119212 1.617712  C 10.540861 2.6857 8.197951 4.251182 6.224567 6.224567  C 4.251182 8.197951 2.6857 10.540861 1.617712 13.119212  C 0.549724 15.697563 -0 18.461213 -0 21.252  C -0 24.042787 0.549724 26.806437 1.617712 29.384788  C 2.6857 31.963139 4.251182 34.306049 6.224567 36.279433  C 8.197951 38.252818 10.540861 39.8183 13.119212 40.886288  C 15.697563 41.954276 18.461213 42.504 21.252 42.504  C 24.042787 42.504 26.806437 41.954276 29.384788 40.886288  C 31.963139 39.8183 34.306049 38.252818 36.279433 36.279433  C 38.252818 34.306049 39.8183 31.963139 40.886288 29.384788  C 41.954276 26.806437 42.504 24.042787 42.504 21.252  M 21.252 21.252  M 42.504 21.252  z " style="fill:#fefebb;stroke:#444443;stroke-linejoin:miter;stroke-width:0.5;" />
   </g>
   <g id="text_1">
    
    <g style="fill:#444443;" transform="translate(8.903016 51.042754)scale(0.09 -0.09)">
     <defs>
      <path d="M 54.890625 33.015625  L 54.890625 0  L 45.90625 0  L 45.90625 32.71875  Q 45.90625 40.484375 42.875 44.328125  Q 39.84375 48.1875 33.796875 48.1875  Q 26.515625 48.1875 22.3125 43.546875  Q 18.109375 38.921875 18.109375 30.90625  L 18.109375 0  L 9.078125 0  L 9.078125 54.6875  L 18.109375 54.6875  L 18.109375 46.1875  Q 21.34375 51.125 25.703125 53.5625  Q 30.078125 56 35.796875 56  Q 45.21875 56 50.046875 50.171875  Q 54.890625 44.34375 54.890625 33.015625  z " id="DejaVuSans-110" />
      <path d="M 10.59375 45.40625  L 73.1875 45.40625  L 73.1875 37.203125  L 10.59375 37.203125  z M 10.59375 25.484375  L 73.1875 25.484375  L 73.1875 17.1875  L 10.59375 17.1875  z " id="DejaVuSans-61" />
      <path d="M 19.1875 8.296875  L 53.609375 8.296875  L 53.609375 0  L 7.328125 0  L 7.328125 8.296875  Q 12.9375 14.109375 22.625 23.890625  Q 32.328125 33.6875 34.8125 36.53125  Q 39.546875 41.84375 41.421875 45.53125  Q 43.3125 49.21875 43.3125 52.78125  Q 43.3125 58.59375 39.234375 62.25  Q 35.15625 65.921875 28.609375 65.921875  Q 23.96875 65.921875 18.8125 64.3125  Q 13.671875 62.703125 7.8125 59.421875  L 7.8125 69.390625  Q 13.765625 71.78125 18.9375 73  Q 24.125 74.21875 28.421875 74.21875  Q 39.75 74.21875 46.484375 68.546875  Q 53.21875 62.890625 53.21875 53.421875  Q 53.21875 48.921875 51.53125 44.890625  Q 49.859375 40.875 45.40625 35.40625  Q 44.1875 33.984375 37.640625 27.21875  Q 31.109375 20.453125 19.1875 8.296875  z " id="DejaVuSans-50" />
      <path d="M 8.203125 72.90625  L 55.078125 72.90625  L 55.078125 68.703125  L 28.609375 0  L 18.3125 0  L 43.21875 64.59375  L 8.203125 64.59375  z " id="DejaVuSans-55" />
     </defs>
     <use xlink:href="#DejaVuSans-110" />
     <use x="63.378906" xlink:href="#DejaVuSans-61" />
     <use x="147.167969" xlink:href="#DejaVuSans-50" />
     <use x="210.791016" xlink:href="#DejaVuSans-55" />
    </g>
    
    <g style="fill:#444443;" transform="translate(1.055438 61.120785)scale(0.09 -0.09)">
     <defs>
      <path d="M 9.8125 72.90625  L 23.09375 72.90625  L 55.421875 11.921875  L 55.421875 72.90625  L 64.984375 72.90625  L 64.984375 0  L 51.703125 0  L 19.390625 60.984375  L 19.390625 0  L 9.8125 0  z " id="DejaVuSans-78" />
      <path d="M 56.203125 29.59375  L 56.203125 25.203125  L 14.890625 25.203125  Q 15.484375 15.921875 20.484375 11.0625  Q 25.484375 6.203125 34.421875 6.203125  Q 39.59375 6.203125 44.453125 7.46875  Q 49.3125 8.734375 54.109375 11.28125  L 54.109375 2.78125  Q 49.265625 0.734375 44.1875 -0.34375  Q 39.109375 -1.421875 33.890625 -1.421875  Q 20.796875 -1.421875 13.15625 6.1875  Q 5.515625 13.8125 5.515625 26.8125  Q 5.515625 40.234375 12.765625 48.109375  Q 20.015625 56 32.328125 56  Q 43.359375 56 49.78125 48.890625  Q 56.203125 41.796875 56.203125 29.59375  z M 47.21875 32.234375  Q 47.125 39.59375 43.09375 43.984375  Q 39.0625 48.390625 32.421875 48.390625  Q 24.90625 48.390625 20.390625 44.140625  Q 15.875 39.890625 15.1875 32.171875  z " id="DejaVuSans-101" />
      <path d="M 45.40625 27.984375  Q 45.40625 37.75 41.375 43.109375  Q 37.359375 48.484375 30.078125 48.484375  Q 22.859375 48.484375 18.828125 43.109375  Q 14.796875 37.75 14.796875 27.984375  Q 14.796875 18.265625 18.828125 12.890625  Q 22.859375 7.515625 30.078125 7.515625  Q 37.359375 7.515625 41.375 12.890625  Q 45.40625 18.265625 45.40625 27.984375  z M 54.390625 6.78125  Q 54.390625 -7.171875 48.1875 -13.984375  Q 42 -20.796875 29.203125 -20.796875  Q 24.46875 -20.796875 20.265625 -20.09375  Q 16.0625 -19.390625 12.109375 -17.921875  L 12.109375 -9.1875  Q 16.0625 -11.328125 19.921875 -12.34375  Q 23.78125 -13.375 27.78125 -13.375  Q 36.625 -13.375 41.015625 -8.765625  Q 45.40625 -4.15625 45.40625 5.171875  L 45.40625 9.625  Q 42.625 4.78125 38.28125 2.390625  Q 33.9375 0 27.875 0  Q 17.828125 0 11.671875 7.65625  Q 5.515625 15.328125 5.515625 27.984375  Q 5.515625 40.671875 11.671875 48.328125  Q 17.828125 56 27.875 56  Q 33.9375 56 38.28125 53.609375  Q 42.625 51.21875 45.40625 46.390625  L 45.40625 54.6875  L 54.390625 54.6875  z " id="DejaVuSans-103" />
      <path d="M 34.28125 27.484375  Q 23.390625 27.484375 19.1875 25  Q 14.984375 22.515625 14.984375 16.5  Q 14.984375 11.71875 18.140625 8.90625  Q 21.296875 6.109375 26.703125 6.109375  Q 34.1875 6.109375 38.703125 11.40625  Q 43.21875 16.703125 43.21875 25.484375  L 43.21875 27.484375  z M 52.203125 31.203125  L 52.203125 0  L 43.21875 0  L 43.21875 8.296875  Q 40.140625 3.328125 35.546875 0.953125  Q 30.953125 -1.421875 24.3125 -1.421875  Q 15.921875 -1.421875 10.953125 3.296875  Q 6 8.015625 6 15.921875  Q 6 25.140625 12.171875 29.828125  Q 18.359375 34.515625 30.609375 34.515625  L 43.21875 34.515625  L 43.21875 35.40625  Q 43.21875 41.609375 39.140625 45  Q 35.0625 48.390625 27.6875 48.390625  Q 23 48.390625 18.546875 47.265625  Q 14.109375 46.140625 10.015625 43.890625  L 10.015625 52.203125  Q 14.9375 54.109375 19.578125 55.046875  Q 24.21875 56 28.609375 56  Q 40.484375 56 46.34375 49.84375  Q 52.203125 43.703125 52.203125 31.203125  z " id="DejaVuSans-97" />
      <path d="M 18.3125 70.21875  L 18.3125 54.6875  L 36.8125 54.6875  L 36.8125 47.703125  L 18.3125 47.703125  L 18.3125 18.015625  Q 18.3125 11.328125 20.140625 9.421875  Q 21.96875 7.515625 27.59375 7.515625  L 36.8125 7.515625  L 36.8125 0  L 27.59375 0  Q 17.1875 0 13.234375 3.875  Q 9.28125 7.765625 9.28125 18.015625  L 9.28125 47.703125  L 2.6875 47.703125  L 2.6875 54.6875  L 9.28125 54.6875  L 9.28125 70.21875  z " id="DejaVuSans-116" />
      <path d="M 9.421875 54.6875  L 18.40625 54.6875  L 18.40625 0  L 9.421875 0  z M 9.421875 75.984375  L 18.40625 75.984375  L 18.40625 64.59375  L 9.421875 64.59375  z " id="DejaVuSans-105" />
      <path d="M 2.984375 54.6875  L 12.5 54.6875  L 29.59375 8.796875  L 46.6875 54.6875  L 56.203125 54.6875  L 35.6875 0  L 23.484375 0  z " id="DejaVuSans-118" />
     </defs>
     <use xlink:href="#DejaVuSans-78" />
     <use x="74.804688" xlink:href="#DejaVuSans-101" />
     <use x="136.328125" xlink:href="#DejaVuSans-103" />
     <use x="199.804688" xlink:href="#DejaVuSans-97" />
     <use x="261.083984" xlink:href="#DejaVuSans-116" />
     <use x="300.292969" xlink:href="#DejaVuSans-105" />
     <use x="328.076172" xlink:href="#DejaVuSans-118" />
     <use x="387.255859" xlink:href="#DejaVuSans-101" />
    </g>
   </g>
  </g>
 </g>
</svg></g>

<g id="edge1" class="edge">
<title>node1-&gt;leaf2</title>
<path fill="none" stroke="#444443" stroke-width="0.3" d="M67.2,-71.96C65.96,-67.72 64.73,-63.5 63.54,-59.45" />
<polygon fill="#444443" stroke="#444443" stroke-width="0.3" points="64.84,-58.9 62.37,-55.45 62.15,-59.68 64.84,-58.9" />
</g>

<g id="node4" class="node">
<title>leaf3</title>
<polygon fill="none" stroke="#444443" stroke-width="0" points="126.5,-54 88.5,-54 88.5,-1 126.5,-1 126.5,-54" />
<svg height="45px" version="1.1" viewBox="0 0 40.393125 59.148663" width="30px" preserveAspectRatio="xMinYMin meet" x="92.5" y="-49.5">
 <metadata>
  <rdf:RDF>
   <ns2:Work>
    <dc:type rdf:resource="http://purl.org/dc/dcmitype/StillImage" />
    <dc:date>2021-04-15T14:35:46.086928</dc:date>
    <dc:format>image/svg+xml</dc:format>
    <dc:creator>
     <ns2:Agent>
      <dc:title>Matplotlib v3.3.4, https://matplotlib.org/</dc:title>
     </ns2:Agent>
    </dc:creator>
   </ns2:Work>
  </rdf:RDF>
 </metadata>
 <defs>
  <style type="text/css">*{stroke-linecap:butt;stroke-linejoin:round;}</style>
 </defs>
 <g id="figure_1">
  <g id="patch_1">
   <path d="M 0 59.148663  L 40.393125 59.148663  L 40.393125 0  L 0 0  z " style="fill:#ffffff;" />
  </g>
  <g id="axes_1">
   <g id="patch_2">
    <path d="M 39.600563 19.403999  C 39.600563 17.28264 39.252683 15.175567 38.570795 13.166788  C 37.888906 11.158009 36.882193 9.27458 35.590791 7.591593  C 34.299389 5.908605 32.740693 4.448727 30.976848 3.270163  C 29.213002 2.091599 27.267763 1.210223 25.218688 0.661175  C 23.169612 0.112126 21.044298 -0.097199 18.927481 0.041545  C 16.810664 0.180288 14.730854 0.665232 12.770974 1.47704  C 10.811094 2.288849 8.997539 3.41659 7.402617 4.815299  C 5.807695 6.214008 4.452886 7.864847 3.392206 9.701998  C 2.331526 11.539149 1.579262 13.537867 1.165405 15.618465  C 0.751548 17.699063 0.681673 19.833517 0.958566 21.936728  C 1.235459 24.039939 1.85539 26.083578 2.793643 27.986167  C 3.731896 29.888757 4.975834 31.62467 6.475861 33.124698  C 7.975889 34.624726 9.711802 35.868664 11.614391 36.806917  C 13.51698 37.74517 15.56062 38.365102 17.66383 38.641995  C 19.767041 38.918888 21.901495 38.849014 23.982093 38.435157  C 26.062691 38.021301 28.061409 37.269037 29.89856 36.208357  L 20.196563 19.403999  L 39.600563 19.403999  z " style="fill:#fefebb;stroke:#444443;stroke-linejoin:miter;stroke-width:0.5;" />
   </g>
   <g id="patch_3">
    <path d="M 29.89856 36.208357  C 32.848122 34.505428 35.297988 32.055562 37.000918 29.106001  C 38.703849 26.15644 39.600562 22.809861 39.600562 19.404001  L 20.196563 19.403999  L 29.89856 36.208357  z " style="fill:#a1dab4;stroke:#444443;stroke-linejoin:miter;stroke-width:0.5;" />
   </g>
   <g id="text_1">
    
    <g style="fill:#444443;" transform="translate(7.847578 47.198913)scale(0.09 -0.09)">
     <defs>
      <path d="M 54.890625 33.015625  L 54.890625 0  L 45.90625 0  L 45.90625 32.71875  Q 45.90625 40.484375 42.875 44.328125  Q 39.84375 48.1875 33.796875 48.1875  Q 26.515625 48.1875 22.3125 43.546875  Q 18.109375 38.921875 18.109375 30.90625  L 18.109375 0  L 9.078125 0  L 9.078125 54.6875  L 18.109375 54.6875  L 18.109375 46.1875  Q 21.34375 51.125 25.703125 53.5625  Q 30.078125 56 35.796875 56  Q 45.21875 56 50.046875 50.171875  Q 54.890625 44.34375 54.890625 33.015625  z " id="DejaVuSans-110" />
      <path d="M 10.59375 45.40625  L 73.1875 45.40625  L 73.1875 37.203125  L 10.59375 37.203125  z M 10.59375 25.484375  L 73.1875 25.484375  L 73.1875 17.1875  L 10.59375 17.1875  z " id="DejaVuSans-61" />
      <path d="M 19.1875 8.296875  L 53.609375 8.296875  L 53.609375 0  L 7.328125 0  L 7.328125 8.296875  Q 12.9375 14.109375 22.625 23.890625  Q 32.328125 33.6875 34.8125 36.53125  Q 39.546875 41.84375 41.421875 45.53125  Q 43.3125 49.21875 43.3125 52.78125  Q 43.3125 58.59375 39.234375 62.25  Q 35.15625 65.921875 28.609375 65.921875  Q 23.96875 65.921875 18.8125 64.3125  Q 13.671875 62.703125 7.8125 59.421875  L 7.8125 69.390625  Q 13.765625 71.78125 18.9375 73  Q 24.125 74.21875 28.421875 74.21875  Q 39.75 74.21875 46.484375 68.546875  Q 53.21875 62.890625 53.21875 53.421875  Q 53.21875 48.921875 51.53125 44.890625  Q 49.859375 40.875 45.40625 35.40625  Q 44.1875 33.984375 37.640625 27.21875  Q 31.109375 20.453125 19.1875 8.296875  z " id="DejaVuSans-50" />
      <path d="M 37.796875 64.3125  L 12.890625 25.390625  L 37.796875 25.390625  z M 35.203125 72.90625  L 47.609375 72.90625  L 47.609375 25.390625  L 58.015625 25.390625  L 58.015625 17.1875  L 47.609375 17.1875  L 47.609375 0  L 37.796875 0  L 37.796875 17.1875  L 4.890625 17.1875  L 4.890625 26.703125  z " id="DejaVuSans-52" />
     </defs>
     <use xlink:href="#DejaVuSans-110" />
     <use x="63.378906" xlink:href="#DejaVuSans-61" />
     <use x="147.167969" xlink:href="#DejaVuSans-50" />
     <use x="210.791016" xlink:href="#DejaVuSans-52" />
    </g>
    
    <g style="fill:#444443;" transform="translate(0 57.276944)scale(0.09 -0.09)">
     <defs>
      <path d="M 9.8125 72.90625  L 23.09375 72.90625  L 55.421875 11.921875  L 55.421875 72.90625  L 64.984375 72.90625  L 64.984375 0  L 51.703125 0  L 19.390625 60.984375  L 19.390625 0  L 9.8125 0  z " id="DejaVuSans-78" />
      <path d="M 56.203125 29.59375  L 56.203125 25.203125  L 14.890625 25.203125  Q 15.484375 15.921875 20.484375 11.0625  Q 25.484375 6.203125 34.421875 6.203125  Q 39.59375 6.203125 44.453125 7.46875  Q 49.3125 8.734375 54.109375 11.28125  L 54.109375 2.78125  Q 49.265625 0.734375 44.1875 -0.34375  Q 39.109375 -1.421875 33.890625 -1.421875  Q 20.796875 -1.421875 13.15625 6.1875  Q 5.515625 13.8125 5.515625 26.8125  Q 5.515625 40.234375 12.765625 48.109375  Q 20.015625 56 32.328125 56  Q 43.359375 56 49.78125 48.890625  Q 56.203125 41.796875 56.203125 29.59375  z M 47.21875 32.234375  Q 47.125 39.59375 43.09375 43.984375  Q 39.0625 48.390625 32.421875 48.390625  Q 24.90625 48.390625 20.390625 44.140625  Q 15.875 39.890625 15.1875 32.171875  z " id="DejaVuSans-101" />
      <path d="M 45.40625 27.984375  Q 45.40625 37.75 41.375 43.109375  Q 37.359375 48.484375 30.078125 48.484375  Q 22.859375 48.484375 18.828125 43.109375  Q 14.796875 37.75 14.796875 27.984375  Q 14.796875 18.265625 18.828125 12.890625  Q 22.859375 7.515625 30.078125 7.515625  Q 37.359375 7.515625 41.375 12.890625  Q 45.40625 18.265625 45.40625 27.984375  z M 54.390625 6.78125  Q 54.390625 -7.171875 48.1875 -13.984375  Q 42 -20.796875 29.203125 -20.796875  Q 24.46875 -20.796875 20.265625 -20.09375  Q 16.0625 -19.390625 12.109375 -17.921875  L 12.109375 -9.1875  Q 16.0625 -11.328125 19.921875 -12.34375  Q 23.78125 -13.375 27.78125 -13.375  Q 36.625 -13.375 41.015625 -8.765625  Q 45.40625 -4.15625 45.40625 5.171875  L 45.40625 9.625  Q 42.625 4.78125 38.28125 2.390625  Q 33.9375 0 27.875 0  Q 17.828125 0 11.671875 7.65625  Q 5.515625 15.328125 5.515625 27.984375  Q 5.515625 40.671875 11.671875 48.328125  Q 17.828125 56 27.875 56  Q 33.9375 56 38.28125 53.609375  Q 42.625 51.21875 45.40625 46.390625  L 45.40625 54.6875  L 54.390625 54.6875  z " id="DejaVuSans-103" />
      <path d="M 34.28125 27.484375  Q 23.390625 27.484375 19.1875 25  Q 14.984375 22.515625 14.984375 16.5  Q 14.984375 11.71875 18.140625 8.90625  Q 21.296875 6.109375 26.703125 6.109375  Q 34.1875 6.109375 38.703125 11.40625  Q 43.21875 16.703125 43.21875 25.484375  L 43.21875 27.484375  z M 52.203125 31.203125  L 52.203125 0  L 43.21875 0  L 43.21875 8.296875  Q 40.140625 3.328125 35.546875 0.953125  Q 30.953125 -1.421875 24.3125 -1.421875  Q 15.921875 -1.421875 10.953125 3.296875  Q 6 8.015625 6 15.921875  Q 6 25.140625 12.171875 29.828125  Q 18.359375 34.515625 30.609375 34.515625  L 43.21875 34.515625  L 43.21875 35.40625  Q 43.21875 41.609375 39.140625 45  Q 35.0625 48.390625 27.6875 48.390625  Q 23 48.390625 18.546875 47.265625  Q 14.109375 46.140625 10.015625 43.890625  L 10.015625 52.203125  Q 14.9375 54.109375 19.578125 55.046875  Q 24.21875 56 28.609375 56  Q 40.484375 56 46.34375 49.84375  Q 52.203125 43.703125 52.203125 31.203125  z " id="DejaVuSans-97" />
      <path d="M 18.3125 70.21875  L 18.3125 54.6875  L 36.8125 54.6875  L 36.8125 47.703125  L 18.3125 47.703125  L 18.3125 18.015625  Q 18.3125 11.328125 20.140625 9.421875  Q 21.96875 7.515625 27.59375 7.515625  L 36.8125 7.515625  L 36.8125 0  L 27.59375 0  Q 17.1875 0 13.234375 3.875  Q 9.28125 7.765625 9.28125 18.015625  L 9.28125 47.703125  L 2.6875 47.703125  L 2.6875 54.6875  L 9.28125 54.6875  L 9.28125 70.21875  z " id="DejaVuSans-116" />
      <path d="M 9.421875 54.6875  L 18.40625 54.6875  L 18.40625 0  L 9.421875 0  z M 9.421875 75.984375  L 18.40625 75.984375  L 18.40625 64.59375  L 9.421875 64.59375  z " id="DejaVuSans-105" />
      <path d="M 2.984375 54.6875  L 12.5 54.6875  L 29.59375 8.796875  L 46.6875 54.6875  L 56.203125 54.6875  L 35.6875 0  L 23.484375 0  z " id="DejaVuSans-118" />
     </defs>
     <use xlink:href="#DejaVuSans-78" />
     <use x="74.804688" xlink:href="#DejaVuSans-101" />
     <use x="136.328125" xlink:href="#DejaVuSans-103" />
     <use x="199.804688" xlink:href="#DejaVuSans-97" />
     <use x="261.083984" xlink:href="#DejaVuSans-116" />
     <use x="300.292969" xlink:href="#DejaVuSans-105" />
     <use x="328.076172" xlink:href="#DejaVuSans-118" />
     <use x="387.255859" xlink:href="#DejaVuSans-101" />
    </g>
   </g>
  </g>
 </g>
</svg></g>

<g id="edge2" class="edge">
<title>node1-&gt;leaf3</title>
<path fill="none" stroke="#444443" stroke-width="0.3" d="M94.32,-71.96C95.75,-67.24 97.17,-62.54 98.53,-58.07" />
<polygon fill="#444443" stroke="#444443" stroke-width="0.3" points="99.93,-58.27 99.75,-54.03 97.25,-57.45 99.93,-58.27" />
</g>

<g id="node5" class="node">
<title>leaf4</title>
<polygon fill="none" stroke="#444443" stroke-width="0" points="208.5,-141.5 174.5,-141.5 174.5,-95.5 208.5,-95.5 208.5,-141.5" />
<svg height="38px" version="1.1" viewBox="0 0 34.689375 50.179575" width="26px" preserveAspectRatio="xMinYMin meet" x="178.5" y="-137.5">
 <metadata>
  <rdf:RDF>
   <ns2:Work>
    <dc:type rdf:resource="http://purl.org/dc/dcmitype/StillImage" />
    <dc:date>2021-04-15T14:35:46.170612</dc:date>
    <dc:format>image/svg+xml</dc:format>
    <dc:creator>
     <ns2:Agent>
      <dc:title>Matplotlib v3.3.4, https://matplotlib.org/</dc:title>
     </ns2:Agent>
    </dc:creator>
   </ns2:Work>
  </rdf:RDF>
 </metadata>
 <defs>
  <style type="text/css">*{stroke-linecap:butt;stroke-linejoin:round;}</style>
 </defs>
 <g id="figure_1">
  <g id="patch_1">
   <path d="M 0 50.179575  L 34.689375 50.179575  L 34.689375 0  L 0 0  z " style="fill:#ffffff;" />
  </g>
  <g id="axes_1">
   <g id="patch_2">
    <path d="M 32.436688 15.091872  C 32.436688 11.809958 31.366158 8.615933 29.388363 5.99691  C 27.410569 3.377886 24.631437 1.474137 21.474809 0.575999  C 18.318181 -0.322139 14.953121 -0.166563 11.892828 1.019001  C 8.832535 2.204565 6.240915 4.356619 4.51321 7.146958  L 17.344687 15.091872  L 32.436688 15.091872  z " style="fill:#fefebb;stroke:#444443;stroke-linejoin:miter;stroke-width:0.5;" />
   </g>
   <g id="patch_3">
    <path d="M 4.51321 7.146958  C 3.284282 9.131746 2.532463 11.374869 2.317067 13.699358  C 2.101672 16.023848 2.428517 18.366924 3.271817 20.543732  C 4.115117 22.72054 5.452096 24.672288 7.177274 26.244995  C 8.902452 27.817702 10.969235 28.968893 13.214567 29.607745  C 15.459899 30.246596 17.823138 30.355855 20.117837 29.926901  C 22.412537 29.497947 24.576722 28.542366 26.439651 27.135546  C 28.302581 25.728727 29.81394 23.908665 30.854493 21.818953  C 31.895046 19.72924 32.436688 17.426317 32.436687 15.091869  L 17.344687 15.091872  L 4.51321 7.146958  z " style="fill:#a1dab4;stroke:#444443;stroke-linejoin:miter;stroke-width:0.5;" />
   </g>
   <g id="text_1">
    
    <g style="fill:#444443;" transform="translate(4.995703 38.229825)scale(0.09 -0.09)">
     <defs>
      <path d="M 54.890625 33.015625  L 54.890625 0  L 45.90625 0  L 45.90625 32.71875  Q 45.90625 40.484375 42.875 44.328125  Q 39.84375 48.1875 33.796875 48.1875  Q 26.515625 48.1875 22.3125 43.546875  Q 18.109375 38.921875 18.109375 30.90625  L 18.109375 0  L 9.078125 0  L 9.078125 54.6875  L 18.109375 54.6875  L 18.109375 46.1875  Q 21.34375 51.125 25.703125 53.5625  Q 30.078125 56 35.796875 56  Q 45.21875 56 50.046875 50.171875  Q 54.890625 44.34375 54.890625 33.015625  z " id="DejaVuSans-110" />
      <path d="M 10.59375 45.40625  L 73.1875 45.40625  L 73.1875 37.203125  L 10.59375 37.203125  z M 10.59375 25.484375  L 73.1875 25.484375  L 73.1875 17.1875  L 10.59375 17.1875  z " id="DejaVuSans-61" />
      <path d="M 12.40625 8.296875  L 28.515625 8.296875  L 28.515625 63.921875  L 10.984375 60.40625  L 10.984375 69.390625  L 28.421875 72.90625  L 38.28125 72.90625  L 38.28125 8.296875  L 54.390625 8.296875  L 54.390625 0  L 12.40625 0  z " id="DejaVuSans-49" />
      <path d="M 8.203125 72.90625  L 55.078125 72.90625  L 55.078125 68.703125  L 28.609375 0  L 18.3125 0  L 43.21875 64.59375  L 8.203125 64.59375  z " id="DejaVuSans-55" />
     </defs>
     <use xlink:href="#DejaVuSans-110" />
     <use x="63.378906" xlink:href="#DejaVuSans-61" />
     <use x="147.167969" xlink:href="#DejaVuSans-49" />
     <use x="210.791016" xlink:href="#DejaVuSans-55" />
    </g>
    
    <g style="fill:#444443;" transform="translate(0 48.307857)scale(0.09 -0.09)">
     <defs>
      <path d="M 19.671875 64.796875  L 19.671875 37.40625  L 32.078125 37.40625  Q 38.96875 37.40625 42.71875 40.96875  Q 46.484375 44.53125 46.484375 51.125  Q 46.484375 57.671875 42.71875 61.234375  Q 38.96875 64.796875 32.078125 64.796875  z M 9.8125 72.90625  L 32.078125 72.90625  Q 44.34375 72.90625 50.609375 67.359375  Q 56.890625 61.8125 56.890625 51.125  Q 56.890625 40.328125 50.609375 34.8125  Q 44.34375 29.296875 32.078125 29.296875  L 19.671875 29.296875  L 19.671875 0  L 9.8125 0  z " id="DejaVuSans-80" />
      <path d="M 30.609375 48.390625  Q 23.390625 48.390625 19.1875 42.75  Q 14.984375 37.109375 14.984375 27.296875  Q 14.984375 17.484375 19.15625 11.84375  Q 23.34375 6.203125 30.609375 6.203125  Q 37.796875 6.203125 41.984375 11.859375  Q 46.1875 17.53125 46.1875 27.296875  Q 46.1875 37.015625 41.984375 42.703125  Q 37.796875 48.390625 30.609375 48.390625  z M 30.609375 56  Q 42.328125 56 49.015625 48.375  Q 55.71875 40.765625 55.71875 27.296875  Q 55.71875 13.875 49.015625 6.21875  Q 42.328125 -1.421875 30.609375 -1.421875  Q 18.84375 -1.421875 12.171875 6.21875  Q 5.515625 13.875 5.515625 27.296875  Q 5.515625 40.765625 12.171875 48.375  Q 18.84375 56 30.609375 56  z " id="DejaVuSans-111" />
      <path d="M 44.28125 53.078125  L 44.28125 44.578125  Q 40.484375 46.53125 36.375 47.5  Q 32.28125 48.484375 27.875 48.484375  Q 21.1875 48.484375 17.84375 46.4375  Q 14.5 44.390625 14.5 40.28125  Q 14.5 37.15625 16.890625 35.375  Q 19.28125 33.59375 26.515625 31.984375  L 29.59375 31.296875  Q 39.15625 29.25 43.1875 25.515625  Q 47.21875 21.78125 47.21875 15.09375  Q 47.21875 7.46875 41.1875 3.015625  Q 35.15625 -1.421875 24.609375 -1.421875  Q 20.21875 -1.421875 15.453125 -0.5625  Q 10.6875 0.296875 5.421875 2  L 5.421875 11.28125  Q 10.40625 8.6875 15.234375 7.390625  Q 20.0625 6.109375 24.8125 6.109375  Q 31.15625 6.109375 34.5625 8.28125  Q 37.984375 10.453125 37.984375 14.40625  Q 37.984375 18.0625 35.515625 20.015625  Q 33.0625 21.96875 24.703125 23.78125  L 21.578125 24.515625  Q 13.234375 26.265625 9.515625 29.90625  Q 5.8125 33.546875 5.8125 39.890625  Q 5.8125 47.609375 11.28125 51.796875  Q 16.75 56 26.8125 56  Q 31.78125 56 36.171875 55.265625  Q 40.578125 54.546875 44.28125 53.078125  z " id="DejaVuSans-115" />
      <path d="M 9.421875 54.6875  L 18.40625 54.6875  L 18.40625 0  L 9.421875 0  z M 9.421875 75.984375  L 18.40625 75.984375  L 18.40625 64.59375  L 9.421875 64.59375  z " id="DejaVuSans-105" />
      <path d="M 18.3125 70.21875  L 18.3125 54.6875  L 36.8125 54.6875  L 36.8125 47.703125  L 18.3125 47.703125  L 18.3125 18.015625  Q 18.3125 11.328125 20.140625 9.421875  Q 21.96875 7.515625 27.59375 7.515625  L 36.8125 7.515625  L 36.8125 0  L 27.59375 0  Q 17.1875 0 13.234375 3.875  Q 9.28125 7.765625 9.28125 18.015625  L 9.28125 47.703125  L 2.6875 47.703125  L 2.6875 54.6875  L 9.28125 54.6875  L 9.28125 70.21875  z " id="DejaVuSans-116" />
      <path d="M 2.984375 54.6875  L 12.5 54.6875  L 29.59375 8.796875  L 46.6875 54.6875  L 56.203125 54.6875  L 35.6875 0  L 23.484375 0  z " id="DejaVuSans-118" />
      <path d="M 56.203125 29.59375  L 56.203125 25.203125  L 14.890625 25.203125  Q 15.484375 15.921875 20.484375 11.0625  Q 25.484375 6.203125 34.421875 6.203125  Q 39.59375 6.203125 44.453125 7.46875  Q 49.3125 8.734375 54.109375 11.28125  L 54.109375 2.78125  Q 49.265625 0.734375 44.1875 -0.34375  Q 39.109375 -1.421875 33.890625 -1.421875  Q 20.796875 -1.421875 13.15625 6.1875  Q 5.515625 13.8125 5.515625 26.8125  Q 5.515625 40.234375 12.765625 48.109375  Q 20.015625 56 32.328125 56  Q 43.359375 56 49.78125 48.890625  Q 56.203125 41.796875 56.203125 29.59375  z M 47.21875 32.234375  Q 47.125 39.59375 43.09375 43.984375  Q 39.0625 48.390625 32.421875 48.390625  Q 24.90625 48.390625 20.390625 44.140625  Q 15.875 39.890625 15.1875 32.171875  z " id="DejaVuSans-101" />
     </defs>
     <use xlink:href="#DejaVuSans-80" />
     <use x="56.677734" xlink:href="#DejaVuSans-111" />
     <use x="117.859375" xlink:href="#DejaVuSans-115" />
     <use x="169.958984" xlink:href="#DejaVuSans-105" />
     <use x="197.742188" xlink:href="#DejaVuSans-116" />
     <use x="236.951172" xlink:href="#DejaVuSans-105" />
     <use x="264.734375" xlink:href="#DejaVuSans-118" />
     <use x="323.914062" xlink:href="#DejaVuSans-101" />
    </g>
   </g>
  </g>
 </g>
</svg></g>


<g id="node2" class="node">
<title>node0</title>
<svg height="45px" version="1.1" viewBox="0 0 196.23 59.795625" width="147px" preserveAspectRatio="xMinYMin meet" x="62.5" y="-244.5">
 <metadata>
  <rdf:RDF>
   <ns2:Work>
    <dc:type rdf:resource="http://purl.org/dc/dcmitype/StillImage" />
    <dc:date>2021-04-15T14:35:45.819387</dc:date>
    <dc:format>image/svg+xml</dc:format>
    <dc:creator>
     <ns2:Agent>
      <dc:title>Matplotlib v3.3.4, https://matplotlib.org/</dc:title>
     </ns2:Agent>
    </dc:creator>
   </ns2:Work>
  </rdf:RDF>
 </metadata>
 <defs>
  <style type="text/css">*{stroke-linecap:butt;stroke-linejoin:round;}</style>
 </defs>
 <g id="figure_1">
  <g id="patch_1">
   <path d="M 0 59.795625  L 196.23 59.795625  L 196.23 0  L 0 0  z " style="fill:#ffffff;" />
  </g>
  <g id="axes_1">
   <g id="patch_2">
    <path d="M 12.09 29.439375  L 196.23 29.439375  L 196.23 1.719375  L 12.09 1.719375  z " style="fill:#ffffff;" />
   </g>
   <g id="patch_3">
    <path clip-path="url(#p19a67960c5)" d="M 33.299006 29.439375  L 40.801531 29.439375  L 40.801531 26.139375  L 33.299006 26.139375  z " style="fill:#fefebb;stroke:#444443;stroke-linejoin:miter;stroke-width:0.5;" />
   </g>
   <g id="patch_4">
    <path clip-path="url(#p19a67960c5)" d="M 40.801531 29.439375  L 48.304055 29.439375  L 48.304055 26.139375  L 40.801531 26.139375  z " style="fill:#fefebb;stroke:#444443;stroke-linejoin:miter;stroke-width:0.5;" />
   </g>
   <g id="patch_5">
    <path clip-path="url(#p19a67960c5)" d="M 48.304055 29.439375  L 55.80658 29.439375  L 55.80658 12.939375  L 48.304055 12.939375  z " style="fill:#fefebb;stroke:#444443;stroke-linejoin:miter;stroke-width:0.5;" />
   </g>
   <g id="patch_6">
    <path clip-path="url(#p19a67960c5)" d="M 55.80658 29.439375  L 63.309104 29.439375  L 63.309104 3.039375  L 55.80658 3.039375  z " style="fill:#fefebb;stroke:#444443;stroke-linejoin:miter;stroke-width:0.5;" />
   </g>
   <g id="patch_7">
    <path clip-path="url(#p19a67960c5)" d="M 63.309104 29.439375  L 70.811629 29.439375  L 70.811629 9.639375  L 63.309104 9.639375  z " style="fill:#fefebb;stroke:#444443;stroke-linejoin:miter;stroke-width:0.5;" />
   </g>
   <g id="patch_8">
    <path clip-path="url(#p19a67960c5)" d="M 70.811629 29.439375  L 78.314153 29.439375  L 78.314153 9.639375  L 70.811629 9.639375  z " style="fill:#fefebb;stroke:#444443;stroke-linejoin:miter;stroke-width:0.5;" />
   </g>
   <g id="patch_9">
    <path clip-path="url(#p19a67960c5)" d="M 78.314153 29.439375  L 85.816678 29.439375  L 85.816678 12.939375  L 78.314153 12.939375  z " style="fill:#fefebb;stroke:#444443;stroke-linejoin:miter;stroke-width:0.5;" />
   </g>
   <g id="patch_10">
    <path clip-path="url(#p19a67960c5)" d="M 85.816678 29.439375  L 93.319203 29.439375  L 93.319203 3.039375  L 85.816678 3.039375  z " style="fill:#fefebb;stroke:#444443;stroke-linejoin:miter;stroke-width:0.5;" />
   </g>
   <g id="patch_11">
    <path clip-path="url(#p19a67960c5)" d="M 93.319203 29.439375  L 100.821727 29.439375  L 100.821727 16.239375  L 93.319203 16.239375  z " style="fill:#fefebb;stroke:#444443;stroke-linejoin:miter;stroke-width:0.5;" />
   </g>
   <g id="patch_12">
    <path clip-path="url(#p19a67960c5)" d="M 100.821727 29.439375  L 108.324252 29.439375  L 108.324252 12.939375  L 100.821727 12.939375  z " style="fill:#fefebb;stroke:#444443;stroke-linejoin:miter;stroke-width:0.5;" />
   </g>
   <g id="patch_13">
    <path clip-path="url(#p19a67960c5)" d="M 108.324252 29.439375  L 115.826776 29.439375  L 115.826776 19.539375  L 108.324252 19.539375  z " style="fill:#fefebb;stroke:#444443;stroke-linejoin:miter;stroke-width:0.5;" />
   </g>
   <g id="patch_14">
    <path clip-path="url(#p19a67960c5)" d="M 115.826776 29.439375  L 123.329301 29.439375  L 123.329301 26.139375  L 115.826776 26.139375  z " style="fill:#fefebb;stroke:#444443;stroke-linejoin:miter;stroke-width:0.5;" />
   </g>
   <g id="patch_15">
    <path clip-path="url(#p19a67960c5)" d="M 123.329301 29.439375  L 130.831825 29.439375  L 130.831825 26.139375  L 123.329301 26.139375  z " style="fill:#fefebb;stroke:#444443;stroke-linejoin:miter;stroke-width:0.5;" />
   </g>
   <g id="patch_16">
    <path clip-path="url(#p19a67960c5)" d="M 130.831825 29.439375  L 138.33435 29.439375  L 138.33435 29.439375  L 130.831825 29.439375  z " style="fill:#fefebb;stroke:#444443;stroke-linejoin:miter;stroke-width:0.5;" />
   </g>
   <g id="patch_17">
    <path clip-path="url(#p19a67960c5)" d="M 138.33435 29.439375  L 145.836875 29.439375  L 145.836875 29.439375  L 138.33435 29.439375  z " style="fill:#fefebb;stroke:#444443;stroke-linejoin:miter;stroke-width:0.5;" />
   </g>
   <g id="patch_18">
    <path clip-path="url(#p19a67960c5)" d="M 145.836875 29.439375  L 153.339399 29.439375  L 153.339399 29.439375  L 145.836875 29.439375  z " style="fill:#fefebb;stroke:#444443;stroke-linejoin:miter;stroke-width:0.5;" />
   </g>
   <g id="patch_19">
    <path clip-path="url(#p19a67960c5)" d="M 153.339399 29.439375  L 160.841924 29.439375  L 160.841924 29.439375  L 153.339399 29.439375  z " style="fill:#fefebb;stroke:#444443;stroke-linejoin:miter;stroke-width:0.5;" />
   </g>
   <g id="patch_20">
    <path clip-path="url(#p19a67960c5)" d="M 160.841924 29.439375  L 168.344448 29.439375  L 168.344448 29.439375  L 160.841924 29.439375  z " style="fill:#fefebb;stroke:#444443;stroke-linejoin:miter;stroke-width:0.5;" />
   </g>
   <g id="patch_21">
    <path clip-path="url(#p19a67960c5)" d="M 168.344448 29.439375  L 175.846973 29.439375  L 175.846973 29.439375  L 168.344448 29.439375  z " style="fill:#fefebb;stroke:#444443;stroke-linejoin:miter;stroke-width:0.5;" />
   </g>
   <g id="patch_22">
    <path clip-path="url(#p19a67960c5)" d="M 33.299006 26.139375  L 40.801531 26.139375  L 40.801531 22.839375  L 33.299006 22.839375  z " style="fill:#a1dab4;stroke:#444443;stroke-linejoin:miter;stroke-width:0.5;" />
   </g>
   <g id="patch_23">
    <path clip-path="url(#p19a67960c5)" d="M 40.801531 26.139375  L 48.304055 26.139375  L 48.304055 26.139375  L 40.801531 26.139375  z " style="fill:#a1dab4;stroke:#444443;stroke-linejoin:miter;stroke-width:0.5;" />
   </g>
   <g id="patch_24">
    <path clip-path="url(#p19a67960c5)" d="M 48.304055 12.939375  L 55.80658 12.939375  L 55.80658 12.939375  L 48.304055 12.939375  z " style="fill:#a1dab4;stroke:#444443;stroke-linejoin:miter;stroke-width:0.5;" />
   </g>
   <g id="patch_25">
    <path clip-path="url(#p19a67960c5)" d="M 55.80658 3.039375  L 63.309104 3.039375  L 63.309104 3.039375  L 55.80658 3.039375  z " style="fill:#a1dab4;stroke:#444443;stroke-linejoin:miter;stroke-width:0.5;" />
   </g>
   <g id="patch_26">
    <path clip-path="url(#p19a67960c5)" d="M 63.309104 9.639375  L 70.811629 9.639375  L 70.811629 6.339375  L 63.309104 6.339375  z " style="fill:#a1dab4;stroke:#444443;stroke-linejoin:miter;stroke-width:0.5;" />
   </g>
   <g id="patch_27">
    <path clip-path="url(#p19a67960c5)" d="M 70.811629 9.639375  L 78.314153 9.639375  L 78.314153 6.339375  L 70.811629 6.339375  z " style="fill:#a1dab4;stroke:#444443;stroke-linejoin:miter;stroke-width:0.5;" />
   </g>
   <g id="patch_28">
    <path clip-path="url(#p19a67960c5)" d="M 78.314153 12.939375  L 85.816678 12.939375  L 85.816678 12.939375  L 78.314153 12.939375  z " style="fill:#a1dab4;stroke:#444443;stroke-linejoin:miter;stroke-width:0.5;" />
   </g>
   <g id="patch_29">
    <path clip-path="url(#p19a67960c5)" d="M 85.816678 3.039375  L 93.319203 3.039375  L 93.319203 3.039375  L 85.816678 3.039375  z " style="fill:#a1dab4;stroke:#444443;stroke-linejoin:miter;stroke-width:0.5;" />
   </g>
   <g id="patch_30">
    <path clip-path="url(#p19a67960c5)" d="M 93.319203 16.239375  L 100.821727 16.239375  L 100.821727 12.939375  L 93.319203 12.939375  z " style="fill:#a1dab4;stroke:#444443;stroke-linejoin:miter;stroke-width:0.5;" />
   </g>
   <g id="patch_31">
    <path clip-path="url(#p19a67960c5)" d="M 100.821727 12.939375  L 108.324252 12.939375  L 108.324252 3.039375  L 100.821727 3.039375  z " style="fill:#a1dab4;stroke:#444443;stroke-linejoin:miter;stroke-width:0.5;" />
   </g>
   <g id="patch_32">
    <path clip-path="url(#p19a67960c5)" d="M 108.324252 19.539375  L 115.826776 19.539375  L 115.826776 9.639375  L 108.324252 9.639375  z " style="fill:#a1dab4;stroke:#444443;stroke-linejoin:miter;stroke-width:0.5;" />
   </g>
   <g id="patch_33">
    <path clip-path="url(#p19a67960c5)" d="M 115.826776 26.139375  L 123.329301 26.139375  L 123.329301 26.139375  L 115.826776 26.139375  z " style="fill:#a1dab4;stroke:#444443;stroke-linejoin:miter;stroke-width:0.5;" />
   </g>
   <g id="patch_34">
    <path clip-path="url(#p19a67960c5)" d="M 123.329301 26.139375  L 130.831825 26.139375  L 130.831825 22.839375  L 123.329301 22.839375  z " style="fill:#a1dab4;stroke:#444443;stroke-linejoin:miter;stroke-width:0.5;" />
   </g>
   <g id="patch_35">
    <path clip-path="url(#p19a67960c5)" d="M 130.831825 29.439375  L 138.33435 29.439375  L 138.33435 29.439375  L 130.831825 29.439375  z " style="fill:#a1dab4;stroke:#444443;stroke-linejoin:miter;stroke-width:0.5;" />
   </g>
   <g id="patch_36">
    <path clip-path="url(#p19a67960c5)" d="M 138.33435 29.439375  L 145.836875 29.439375  L 145.836875 29.439375  L 138.33435 29.439375  z " style="fill:#a1dab4;stroke:#444443;stroke-linejoin:miter;stroke-width:0.5;" />
   </g>
   <g id="patch_37">
    <path clip-path="url(#p19a67960c5)" d="M 145.836875 29.439375  L 153.339399 29.439375  L 153.339399 29.439375  L 145.836875 29.439375  z " style="fill:#a1dab4;stroke:#444443;stroke-linejoin:miter;stroke-width:0.5;" />
   </g>
   <g id="patch_38">
    <path clip-path="url(#p19a67960c5)" d="M 153.339399 29.439375  L 160.841924 29.439375  L 160.841924 26.139375  L 153.339399 26.139375  z " style="fill:#a1dab4;stroke:#444443;stroke-linejoin:miter;stroke-width:0.5;" />
   </g>
   <g id="patch_39">
    <path clip-path="url(#p19a67960c5)" d="M 160.841924 29.439375  L 168.344448 29.439375  L 168.344448 29.439375  L 160.841924 29.439375  z " style="fill:#a1dab4;stroke:#444443;stroke-linejoin:miter;stroke-width:0.5;" />
   </g>
   <g id="patch_40">
    <path clip-path="url(#p19a67960c5)" d="M 168.344448 29.439375  L 175.846973 29.439375  L 175.846973 22.839375  L 168.344448 22.839375  z " style="fill:#a1dab4;stroke:#444443;stroke-linejoin:miter;stroke-width:0.5;" />
   </g>
   <g id="patch_41">
    <path d="M 104.739518 30.270975  L 101.424998 37.755375  L 108.054038 37.755375  z " style="fill:#444443;" />
   </g>
   <g id="matplotlib.axis_1">
    <g id="xtick_1">
     <g id="line2d_1">
      <defs>
       <path d="M 0 0  L 0 3.5  " id="m39d671f307" style="stroke:#000000;stroke-width:0.3;" />
      </defs>
      <g>
       <use style="stroke:#000000;stroke-width:0.3;" x="33.299006" xlink:href="#m39d671f307" y="29.439375" />
      </g>
     </g>
     <g id="text_1">
      
      <g style="fill:#444443;" transform="translate(24.392756 42.518125)scale(0.08 -0.08)">
       <defs>
        <path d="M 8.203125 72.90625  L 55.078125 72.90625  L 55.078125 68.703125  L 28.609375 0  L 18.3125 0  L 43.21875 64.59375  L 8.203125 64.59375  z " id="DejaVuSans-55" />
        <path d="M 10.6875 12.40625  L 21 12.40625  L 21 0  L 10.6875 0  z " id="DejaVuSans-46" />
        <path d="M 10.984375 1.515625  L 10.984375 10.5  Q 14.703125 8.734375 18.5 7.8125  Q 22.3125 6.890625 25.984375 6.890625  Q 35.75 6.890625 40.890625 13.453125  Q 46.046875 20.015625 46.78125 33.40625  Q 43.953125 29.203125 39.59375 26.953125  Q 35.25 24.703125 29.984375 24.703125  Q 19.046875 24.703125 12.671875 31.3125  Q 6.296875 37.9375 6.296875 49.421875  Q 6.296875 60.640625 12.9375 67.421875  Q 19.578125 74.21875 30.609375 74.21875  Q 43.265625 74.21875 49.921875 64.515625  Q 56.59375 54.828125 56.59375 36.375  Q 56.59375 19.140625 48.40625 8.859375  Q 40.234375 -1.421875 26.421875 -1.421875  Q 22.703125 -1.421875 18.890625 -0.6875  Q 15.09375 0.046875 10.984375 1.515625  z M 30.609375 32.421875  Q 37.25 32.421875 41.125 36.953125  Q 45.015625 41.5 45.015625 49.421875  Q 45.015625 57.28125 41.125 61.84375  Q 37.25 66.40625 30.609375 66.40625  Q 23.96875 66.40625 20.09375 61.84375  Q 16.21875 57.28125 16.21875 49.421875  Q 16.21875 41.5 20.09375 36.953125  Q 23.96875 32.421875 30.609375 32.421875  z " id="DejaVuSans-57" />
        <path d="M 33.015625 40.375  Q 26.375 40.375 22.484375 35.828125  Q 18.609375 31.296875 18.609375 23.390625  Q 18.609375 15.53125 22.484375 10.953125  Q 26.375 6.390625 33.015625 6.390625  Q 39.65625 6.390625 43.53125 10.953125  Q 47.40625 15.53125 47.40625 23.390625  Q 47.40625 31.296875 43.53125 35.828125  Q 39.65625 40.375 33.015625 40.375  z M 52.59375 71.296875  L 52.59375 62.3125  Q 48.875 64.0625 45.09375 64.984375  Q 41.3125 65.921875 37.59375 65.921875  Q 27.828125 65.921875 22.671875 59.328125  Q 17.53125 52.734375 16.796875 39.40625  Q 19.671875 43.65625 24.015625 45.921875  Q 28.375 48.1875 33.59375 48.1875  Q 44.578125 48.1875 50.953125 41.515625  Q 57.328125 34.859375 57.328125 23.390625  Q 57.328125 12.15625 50.6875 5.359375  Q 44.046875 -1.421875 33.015625 -1.421875  Q 20.359375 -1.421875 13.671875 8.265625  Q 6.984375 17.96875 6.984375 36.375  Q 6.984375 53.65625 15.1875 63.9375  Q 23.390625 74.21875 37.203125 74.21875  Q 40.921875 74.21875 44.703125 73.484375  Q 48.484375 72.75 52.59375 71.296875  z " id="DejaVuSans-54" />
       </defs>
       <use xlink:href="#DejaVuSans-55" />
       <use x="63.623047" xlink:href="#DejaVuSans-46" />
       <use x="95.410156" xlink:href="#DejaVuSans-57" />
       <use x="159.033203" xlink:href="#DejaVuSans-54" />
      </g>
     </g>
    </g>
    <g id="xtick_2">
     <g id="line2d_2">
      <g>
       <use style="stroke:#000000;stroke-width:0.3;" x="175.846973" xlink:href="#m39d671f307" y="29.439375" />
      </g>
     </g>
     <g id="text_2">
      
      <g style="fill:#444443;" transform="translate(164.395723 42.518125)scale(0.08 -0.08)">
       <defs>
        <path d="M 12.40625 8.296875  L 28.515625 8.296875  L 28.515625 63.921875  L 10.984375 60.40625  L 10.984375 69.390625  L 28.421875 72.90625  L 38.28125 72.90625  L 38.28125 8.296875  L 54.390625 8.296875  L 54.390625 0  L 12.40625 0  z " id="DejaVuSans-49" />
        <path d="M 19.1875 8.296875  L 53.609375 8.296875  L 53.609375 0  L 7.328125 0  L 7.328125 8.296875  Q 12.9375 14.109375 22.625 23.890625  Q 32.328125 33.6875 34.8125 36.53125  Q 39.546875 41.84375 41.421875 45.53125  Q 43.3125 49.21875 43.3125 52.78125  Q 43.3125 58.59375 39.234375 62.25  Q 35.15625 65.921875 28.609375 65.921875  Q 23.96875 65.921875 18.8125 64.3125  Q 13.671875 62.703125 7.8125 59.421875  L 7.8125 69.390625  Q 13.765625 71.78125 18.9375 73  Q 24.125 74.21875 28.421875 74.21875  Q 39.75 74.21875 46.484375 68.546875  Q 53.21875 62.890625 53.21875 53.421875  Q 53.21875 48.921875 51.53125 44.890625  Q 49.859375 40.875 45.40625 35.40625  Q 44.1875 33.984375 37.640625 27.21875  Q 31.109375 20.453125 19.1875 8.296875  z " id="DejaVuSans-50" />
        <path d="M 37.796875 64.3125  L 12.890625 25.390625  L 37.796875 25.390625  z M 35.203125 72.90625  L 47.609375 72.90625  L 47.609375 25.390625  L 58.015625 25.390625  L 58.015625 17.1875  L 47.609375 17.1875  L 47.609375 0  L 37.796875 0  L 37.796875 17.1875  L 4.890625 17.1875  L 4.890625 26.703125  z " id="DejaVuSans-52" />
       </defs>
       <use xlink:href="#DejaVuSans-49" />
       <use x="63.623047" xlink:href="#DejaVuSans-50" />
       <use x="127.246094" xlink:href="#DejaVuSans-46" />
       <use x="159.033203" xlink:href="#DejaVuSans-50" />
       <use x="222.65625" xlink:href="#DejaVuSans-52" />
      </g>
     </g>
    </g>
    <g id="text_3">
     
     <g style="fill:#444443;" transform="translate(84.6075 57.3)scale(0.12 -0.12)">
      <defs>
       <path d="M 28.609375 0  L 0.78125 72.90625  L 11.078125 72.90625  L 34.1875 11.53125  L 57.328125 72.90625  L 67.578125 72.90625  L 39.796875 0  z " id="DejaVuSans-86" />
       <path d="M 9.8125 72.90625  L 55.90625 72.90625  L 55.90625 64.59375  L 19.671875 64.59375  L 19.671875 43.015625  L 54.390625 43.015625  L 54.390625 34.71875  L 19.671875 34.71875  L 19.671875 8.296875  L 56.78125 8.296875  L 56.78125 0  L 9.8125 0  z " id="DejaVuSans-69" />
       <path d="M 59.515625 10.40625  L 59.515625 29.984375  L 43.40625 29.984375  L 43.40625 38.09375  L 69.28125 38.09375  L 69.28125 6.78125  Q 63.578125 2.734375 56.6875 0.65625  Q 49.8125 -1.421875 42 -1.421875  Q 24.90625 -1.421875 15.25 8.5625  Q 5.609375 18.5625 5.609375 36.375  Q 5.609375 54.25 15.25 64.234375  Q 24.90625 74.21875 42 74.21875  Q 49.125 74.21875 55.546875 72.453125  Q 61.96875 70.703125 67.390625 67.28125  L 67.390625 56.78125  Q 61.921875 61.421875 55.765625 63.765625  Q 49.609375 66.109375 42.828125 66.109375  Q 29.4375 66.109375 22.71875 58.640625  Q 16.015625 51.171875 16.015625 36.375  Q 16.015625 21.625 22.71875 14.15625  Q 29.4375 6.6875 42.828125 6.6875  Q 48.046875 6.6875 52.140625 7.59375  Q 56.25 8.5 59.515625 10.40625  z " id="DejaVuSans-71" />
       <path d="M 9.8125 72.90625  L 51.703125 72.90625  L 51.703125 64.59375  L 19.671875 64.59375  L 19.671875 43.109375  L 48.578125 43.109375  L 48.578125 34.8125  L 19.671875 34.8125  L 19.671875 0  L 9.8125 0  z " id="DejaVuSans-70" />
       <path d="M 34.1875 63.1875  L 20.796875 26.90625  L 47.609375 26.90625  z M 28.609375 72.90625  L 39.796875 72.90625  L 67.578125 0  L 57.328125 0  L 50.6875 18.703125  L 17.828125 18.703125  L 11.1875 0  L 0.78125 0  z " id="DejaVuSans-65" />
      </defs>
      <use xlink:href="#DejaVuSans-86" />
      <use x="68.408203" xlink:href="#DejaVuSans-69" />
      <use x="131.591797" xlink:href="#DejaVuSans-71" />
      <use x="209.082031" xlink:href="#DejaVuSans-70" />
      <use x="257.476562" xlink:href="#DejaVuSans-65" />
     </g>
    </g>
   </g>
   <g id="matplotlib.axis_2">
    <g id="ytick_1">
     <g id="line2d_3">
      <defs>
       <path d="M 0 0  L -3.5 0  " id="m429200e083" style="stroke:#000000;stroke-width:0.3;" />
      </defs>
      <g>
       <use style="stroke:#000000;stroke-width:0.3;" x="12.09" xlink:href="#m429200e083" y="29.439375" />
      </g>
     </g>
     <g id="text_4">
      
      <g style="fill:#444443;" transform="translate(0 32.47875)scale(0.08 -0.08)">
       <defs>
        <path d="M 31.78125 66.40625  Q 24.171875 66.40625 20.328125 58.90625  Q 16.5 51.421875 16.5 36.375  Q 16.5 21.390625 20.328125 13.890625  Q 24.171875 6.390625 31.78125 6.390625  Q 39.453125 6.390625 43.28125 13.890625  Q 47.125 21.390625 47.125 36.375  Q 47.125 51.421875 43.28125 58.90625  Q 39.453125 66.40625 31.78125 66.40625  z M 31.78125 74.21875  Q 44.046875 74.21875 50.515625 64.515625  Q 56.984375 54.828125 56.984375 36.375  Q 56.984375 17.96875 50.515625 8.265625  Q 44.046875 -1.421875 31.78125 -1.421875  Q 19.53125 -1.421875 13.0625 8.265625  Q 6.59375 17.96875 6.59375 36.375  Q 6.59375 54.828125 13.0625 64.515625  Q 19.53125 74.21875 31.78125 74.21875  z " id="DejaVuSans-48" />
       </defs>
       <use xlink:href="#DejaVuSans-48" />
      </g>
     </g>
    </g>
    <g id="ytick_2">
     <g id="line2d_4">
      <g>
       <use style="stroke:#000000;stroke-width:0.3;" x="12.09" xlink:href="#m429200e083" y="3.039375" />
      </g>
     </g>
     <g id="text_5">
      
      <g style="fill:#444443;" transform="translate(0 6.07875)scale(0.08 -0.08)">
       <defs>
        <path d="M 31.78125 34.625  Q 24.75 34.625 20.71875 30.859375  Q 16.703125 27.09375 16.703125 20.515625  Q 16.703125 13.921875 20.71875 10.15625  Q 24.75 6.390625 31.78125 6.390625  Q 38.8125 6.390625 42.859375 10.171875  Q 46.921875 13.96875 46.921875 20.515625  Q 46.921875 27.09375 42.890625 30.859375  Q 38.875 34.625 31.78125 34.625  z M 21.921875 38.8125  Q 15.578125 40.375 12.03125 44.71875  Q 8.5 49.078125 8.5 55.328125  Q 8.5 64.0625 14.71875 69.140625  Q 20.953125 74.21875 31.78125 74.21875  Q 42.671875 74.21875 48.875 69.140625  Q 55.078125 64.0625 55.078125 55.328125  Q 55.078125 49.078125 51.53125 44.71875  Q 48 40.375 41.703125 38.8125  Q 48.828125 37.15625 52.796875 32.3125  Q 56.78125 27.484375 56.78125 20.515625  Q 56.78125 9.90625 50.3125 4.234375  Q 43.84375 -1.421875 31.78125 -1.421875  Q 19.734375 -1.421875 13.25 4.234375  Q 6.78125 9.90625 6.78125 20.515625  Q 6.78125 27.484375 10.78125 32.3125  Q 14.796875 37.15625 21.921875 38.8125  z M 18.3125 54.390625  Q 18.3125 48.734375 21.84375 45.5625  Q 25.390625 42.390625 31.78125 42.390625  Q 38.140625 42.390625 41.71875 45.5625  Q 45.3125 48.734375 45.3125 54.390625  Q 45.3125 60.0625 41.71875 63.234375  Q 38.140625 66.40625 31.78125 66.40625  Q 25.390625 66.40625 21.84375 63.234375  Q 18.3125 60.0625 18.3125 54.390625  z " id="DejaVuSans-56" />
       </defs>
       <use xlink:href="#DejaVuSans-56" />
      </g>
     </g>
    </g>
   </g>
   <g id="patch_42">
    <path d="M 12.09 29.439375  L 12.09 1.719375  " style="fill:none;stroke:#000000;stroke-linecap:square;stroke-linejoin:miter;stroke-width:0.3;" />
   </g>
   <g id="patch_43">
    <path d="M 12.09 29.439375  L 196.23 29.439375  " style="fill:none;stroke:#000000;stroke-linecap:square;stroke-linejoin:miter;stroke-width:0.3;" />
   </g>
   <g id="text_6">
    
    <g style="fill:#444443;" transform="translate(93.288268 46.071375)scale(0.08 -0.08)">
     <use xlink:href="#DejaVuSans-49" />
     <use x="63.623047" xlink:href="#DejaVuSans-48" />
     <use x="127.246094" xlink:href="#DejaVuSans-46" />
     <use x="159.033203" xlink:href="#DejaVuSans-49" />
     <use x="222.65625" xlink:href="#DejaVuSans-49" />
    </g>
   </g>
  </g>
 </g>
 <defs>
  <clipPath id="p19a67960c5">
   <rect height="27.72" width="184.14" x="12.09" y="1.719375" />
  </clipPath>
 </defs>
</svg></g>

<g id="edge4" class="edge">
<title>node0-&gt;node1</title>
<path fill="none" stroke="#444443" stroke-width="0.3" d="M121.62,-195.76C117.22,-187.6 112.2,-178.29 107.21,-169.04" />
<polygon fill="#444443" stroke="#444443" stroke-width="0.3" points="108.21,-167.94 105.08,-165.08 105.75,-169.27 108.21,-167.94" />
<text text-anchor="start" x="116.5" y="-176.8" font-family="Times,serif" font-size="14.00">&#8804;</text>
</g>

<g id="edge5" class="edge">
<title>node0-&gt;leaf4</title>
<path fill="none" stroke="#444443" stroke-width="0.3" d="M149.63,-195.76C158.05,-180.42 168.72,-161 177.18,-145.59" />
<polygon fill="#444443" stroke="#444443" stroke-width="0.3" points="178.58,-145.95 179.28,-141.77 176.12,-144.6 178.58,-145.95" />
<text text-anchor="start" x="162.5" y="-176.8" font-family="Times,serif" font-size="14.00">&gt;</text>
</g>


<g id="node6" class="node">
<title>legend</title>
<polygon fill="none" stroke="black" stroke-width="0" points="302,-245.5 235,-245.5 235,-199.5 302,-199.5 302,-245.5" />
<svg height="42px" version="1.1" viewBox="0 0 84.38125 55.44" width="63px" preserveAspectRatio="xMinYMin meet" x="237.5" y="-243.5">
 <metadata>
  <rdf:RDF>
   <ns2:Work>
    <dc:type rdf:resource="http://purl.org/dc/dcmitype/StillImage" />
    <dc:date>2021-04-15T14:35:45.311479</dc:date>
    <dc:format>image/svg+xml</dc:format>
    <dc:creator>
     <ns2:Agent>
      <dc:title>Matplotlib v3.3.4, https://matplotlib.org/</dc:title>
     </ns2:Agent>
    </dc:creator>
   </ns2:Work>
  </rdf:RDF>
 </metadata>
 <defs>
  <style type="text/css">*{stroke-linecap:butt;stroke-linejoin:round;}</style>
 </defs>
 <g id="figure_1">
  <g id="patch_1">
   <path d="M 0 55.44  L 84.38125 55.44  L 84.38125 0  L 0 0  z " style="fill:#ffffff;" />
  </g>
  <g id="axes_1">
   <g id="legend_1">
    <g id="patch_2">
     <path d="M 2 55.237187  L 82.38125 55.237187  Q 84.38125 55.237187 84.38125 53.237187  L 84.38125 2.202812  Q 84.38125 0.202812 82.38125 0.202812  L 2 0.202812  Q -0 0.202812 -0 2.202812  L -0 53.237187  Q -0 55.237187 2 55.237187  z " style="fill:#ffffff;opacity:0.8;stroke:#444443;stroke-linejoin:miter;stroke-width:0.5;" />
    </g>
    <g id="text_1">
     
     <g style="fill:#444443;" transform="translate(27.6375 15.80125)scale(0.1 -0.1)">
      <defs>
       <path d="M 8.40625 54.6875  L 25.875 54.6875  L 25.875 0  L 8.40625 0  z M 8.40625 75.984375  L 25.875 75.984375  L 25.875 61.71875  L 8.40625 61.71875  z " id="DejaVuSans-Bold-105" />
       <path d="M 25.875 7.90625  L 25.875 -20.796875  L 8.40625 -20.796875  L 8.40625 54.6875  L 25.875 54.6875  L 25.875 46.6875  Q 29.5 51.46875 33.890625 53.734375  Q 38.28125 56 44 56  Q 54.109375 56 60.59375 47.96875  Q 67.09375 39.9375 67.09375 27.296875  Q 67.09375 14.65625 60.59375 6.609375  Q 54.109375 -1.421875 44 -1.421875  Q 38.28125 -1.421875 33.890625 0.84375  Q 29.5 3.125 25.875 7.90625  z M 37.5 43.3125  Q 31.890625 43.3125 28.875 39.1875  Q 25.875 35.0625 25.875 27.296875  Q 25.875 19.53125 28.875 15.40625  Q 31.890625 11.28125 37.5 11.28125  Q 43.109375 11.28125 46.0625 15.375  Q 49.03125 19.484375 49.03125 27.296875  Q 49.03125 35.109375 46.0625 39.203125  Q 43.109375 43.3125 37.5 43.3125  z " id="DejaVuSans-Bold-112" />
       <path d="M 62.984375 27.484375  L 62.984375 22.515625  L 22.125 22.515625  Q 22.75 16.359375 26.5625 13.28125  Q 30.375 10.203125 37.203125 10.203125  Q 42.71875 10.203125 48.5 11.84375  Q 54.296875 13.484375 60.40625 16.796875  L 60.40625 3.328125  Q 54.203125 0.984375 48 -0.21875  Q 41.796875 -1.421875 35.59375 -1.421875  Q 20.75 -1.421875 12.515625 6.125  Q 4.296875 13.671875 4.296875 27.296875  Q 4.296875 40.671875 12.375 48.328125  Q 20.453125 56 34.625 56  Q 47.515625 56 55.25 48.234375  Q 62.984375 40.484375 62.984375 27.484375  z M 45.015625 33.296875  Q 45.015625 38.28125 42.109375 41.328125  Q 39.203125 44.390625 34.515625 44.390625  Q 29.4375 44.390625 26.265625 41.53125  Q 23.09375 38.671875 22.3125 33.296875  z " id="DejaVuSans-Bold-101" />
       <path d="M 27.484375 70.21875  L 27.484375 54.6875  L 45.515625 54.6875  L 45.515625 42.1875  L 27.484375 42.1875  L 27.484375 19  Q 27.484375 15.1875 29 13.84375  Q 30.515625 12.5 35.015625 12.5  L 44 12.5  L 44 0  L 29 0  Q 18.65625 0 14.328125 4.3125  Q 10.015625 8.640625 10.015625 19  L 10.015625 42.1875  L 1.3125 42.1875  L 1.3125 54.6875  L 10.015625 54.6875  L 10.015625 70.21875  z " id="DejaVuSans-Bold-116" />
       <path d="M 28.8125 13.8125  L 60.890625 13.8125  L 60.890625 0  L 7.90625 0  L 7.90625 13.8125  L 34.515625 37.3125  Q 38.09375 40.53125 39.796875 43.609375  Q 41.5 46.6875 41.5 50  Q 41.5 55.125 38.0625 58.25  Q 34.625 61.375 28.90625 61.375  Q 24.515625 61.375 19.28125 59.5  Q 14.0625 57.625 8.109375 53.90625  L 8.109375 69.921875  Q 14.453125 72.015625 20.65625 73.109375  Q 26.859375 74.21875 32.8125 74.21875  Q 45.90625 74.21875 53.15625 68.453125  Q 60.40625 62.703125 60.40625 52.390625  Q 60.40625 46.4375 57.328125 41.28125  Q 54.25 36.140625 44.390625 27.484375  z " id="DejaVuSans-Bold-50" />
      </defs>
      <use xlink:href="#DejaVuSans-Bold-105" />
      <use x="34.277344" xlink:href="#DejaVuSans-Bold-112" />
      <use x="105.859375" xlink:href="#DejaVuSans-Bold-101" />
      <use x="173.681641" xlink:href="#DejaVuSans-Bold-116" />
      <use x="221.484375" xlink:href="#DejaVuSans-Bold-50" />
     </g>
    </g>
    <g id="patch_3">
     <path d="M 8 30.479375  L 28 30.479375  L 28 23.479375  L 8 23.479375  z " style="fill:#fefebb;stroke:#444443;stroke-linejoin:miter;stroke-width:0.4;" />
    </g>
    <g id="text_2">
     
     <g style="fill:#444443;" transform="translate(31.5 30.479375)scale(0.1 -0.1)">
      <defs>
       <path d="M 9.8125 72.90625  L 23.09375 72.90625  L 55.421875 11.921875  L 55.421875 72.90625  L 64.984375 72.90625  L 64.984375 0  L 51.703125 0  L 19.390625 60.984375  L 19.390625 0  L 9.8125 0  z " id="DejaVuSans-78" />
       <path d="M 56.203125 29.59375  L 56.203125 25.203125  L 14.890625 25.203125  Q 15.484375 15.921875 20.484375 11.0625  Q 25.484375 6.203125 34.421875 6.203125  Q 39.59375 6.203125 44.453125 7.46875  Q 49.3125 8.734375 54.109375 11.28125  L 54.109375 2.78125  Q 49.265625 0.734375 44.1875 -0.34375  Q 39.109375 -1.421875 33.890625 -1.421875  Q 20.796875 -1.421875 13.15625 6.1875  Q 5.515625 13.8125 5.515625 26.8125  Q 5.515625 40.234375 12.765625 48.109375  Q 20.015625 56 32.328125 56  Q 43.359375 56 49.78125 48.890625  Q 56.203125 41.796875 56.203125 29.59375  z M 47.21875 32.234375  Q 47.125 39.59375 43.09375 43.984375  Q 39.0625 48.390625 32.421875 48.390625  Q 24.90625 48.390625 20.390625 44.140625  Q 15.875 39.890625 15.1875 32.171875  z " id="DejaVuSans-101" />
       <path d="M 45.40625 27.984375  Q 45.40625 37.75 41.375 43.109375  Q 37.359375 48.484375 30.078125 48.484375  Q 22.859375 48.484375 18.828125 43.109375  Q 14.796875 37.75 14.796875 27.984375  Q 14.796875 18.265625 18.828125 12.890625  Q 22.859375 7.515625 30.078125 7.515625  Q 37.359375 7.515625 41.375 12.890625  Q 45.40625 18.265625 45.40625 27.984375  z M 54.390625 6.78125  Q 54.390625 -7.171875 48.1875 -13.984375  Q 42 -20.796875 29.203125 -20.796875  Q 24.46875 -20.796875 20.265625 -20.09375  Q 16.0625 -19.390625 12.109375 -17.921875  L 12.109375 -9.1875  Q 16.0625 -11.328125 19.921875 -12.34375  Q 23.78125 -13.375 27.78125 -13.375  Q 36.625 -13.375 41.015625 -8.765625  Q 45.40625 -4.15625 45.40625 5.171875  L 45.40625 9.625  Q 42.625 4.78125 38.28125 2.390625  Q 33.9375 0 27.875 0  Q 17.828125 0 11.671875 7.65625  Q 5.515625 15.328125 5.515625 27.984375  Q 5.515625 40.671875 11.671875 48.328125  Q 17.828125 56 27.875 56  Q 33.9375 56 38.28125 53.609375  Q 42.625 51.21875 45.40625 46.390625  L 45.40625 54.6875  L 54.390625 54.6875  z " id="DejaVuSans-103" />
       <path d="M 34.28125 27.484375  Q 23.390625 27.484375 19.1875 25  Q 14.984375 22.515625 14.984375 16.5  Q 14.984375 11.71875 18.140625 8.90625  Q 21.296875 6.109375 26.703125 6.109375  Q 34.1875 6.109375 38.703125 11.40625  Q 43.21875 16.703125 43.21875 25.484375  L 43.21875 27.484375  z M 52.203125 31.203125  L 52.203125 0  L 43.21875 0  L 43.21875 8.296875  Q 40.140625 3.328125 35.546875 0.953125  Q 30.953125 -1.421875 24.3125 -1.421875  Q 15.921875 -1.421875 10.953125 3.296875  Q 6 8.015625 6 15.921875  Q 6 25.140625 12.171875 29.828125  Q 18.359375 34.515625 30.609375 34.515625  L 43.21875 34.515625  L 43.21875 35.40625  Q 43.21875 41.609375 39.140625 45  Q 35.0625 48.390625 27.6875 48.390625  Q 23 48.390625 18.546875 47.265625  Q 14.109375 46.140625 10.015625 43.890625  L 10.015625 52.203125  Q 14.9375 54.109375 19.578125 55.046875  Q 24.21875 56 28.609375 56  Q 40.484375 56 46.34375 49.84375  Q 52.203125 43.703125 52.203125 31.203125  z " id="DejaVuSans-97" />
       <path d="M 18.3125 70.21875  L 18.3125 54.6875  L 36.8125 54.6875  L 36.8125 47.703125  L 18.3125 47.703125  L 18.3125 18.015625  Q 18.3125 11.328125 20.140625 9.421875  Q 21.96875 7.515625 27.59375 7.515625  L 36.8125 7.515625  L 36.8125 0  L 27.59375 0  Q 17.1875 0 13.234375 3.875  Q 9.28125 7.765625 9.28125 18.015625  L 9.28125 47.703125  L 2.6875 47.703125  L 2.6875 54.6875  L 9.28125 54.6875  L 9.28125 70.21875  z " id="DejaVuSans-116" />
       <path d="M 9.421875 54.6875  L 18.40625 54.6875  L 18.40625 0  L 9.421875 0  z M 9.421875 75.984375  L 18.40625 75.984375  L 18.40625 64.59375  L 9.421875 64.59375  z " id="DejaVuSans-105" />
       <path d="M 2.984375 54.6875  L 12.5 54.6875  L 29.59375 8.796875  L 46.6875 54.6875  L 56.203125 54.6875  L 35.6875 0  L 23.484375 0  z " id="DejaVuSans-118" />
      </defs>
      <use xlink:href="#DejaVuSans-78" />
      <use x="74.804688" xlink:href="#DejaVuSans-101" />
      <use x="136.328125" xlink:href="#DejaVuSans-103" />
      <use x="199.804688" xlink:href="#DejaVuSans-97" />
      <use x="261.083984" xlink:href="#DejaVuSans-116" />
      <use x="300.292969" xlink:href="#DejaVuSans-105" />
      <use x="328.076172" xlink:href="#DejaVuSans-118" />
      <use x="387.255859" xlink:href="#DejaVuSans-101" />
     </g>
    </g>
    <g id="patch_4">
     <path d="M 8 45.1575  L 28 45.1575  L 28 38.1575  L 8 38.1575  z " style="fill:#a1dab4;stroke:#444443;stroke-linejoin:miter;stroke-width:0.4;" />
    </g>
    <g id="text_3">
     
     <g style="fill:#444443;" transform="translate(31.5 45.1575)scale(0.1 -0.1)">
      <defs>
       <path d="M 19.671875 64.796875  L 19.671875 37.40625  L 32.078125 37.40625  Q 38.96875 37.40625 42.71875 40.96875  Q 46.484375 44.53125 46.484375 51.125  Q 46.484375 57.671875 42.71875 61.234375  Q 38.96875 64.796875 32.078125 64.796875  z M 9.8125 72.90625  L 32.078125 72.90625  Q 44.34375 72.90625 50.609375 67.359375  Q 56.890625 61.8125 56.890625 51.125  Q 56.890625 40.328125 50.609375 34.8125  Q 44.34375 29.296875 32.078125 29.296875  L 19.671875 29.296875  L 19.671875 0  L 9.8125 0  z " id="DejaVuSans-80" />
       <path d="M 30.609375 48.390625  Q 23.390625 48.390625 19.1875 42.75  Q 14.984375 37.109375 14.984375 27.296875  Q 14.984375 17.484375 19.15625 11.84375  Q 23.34375 6.203125 30.609375 6.203125  Q 37.796875 6.203125 41.984375 11.859375  Q 46.1875 17.53125 46.1875 27.296875  Q 46.1875 37.015625 41.984375 42.703125  Q 37.796875 48.390625 30.609375 48.390625  z M 30.609375 56  Q 42.328125 56 49.015625 48.375  Q 55.71875 40.765625 55.71875 27.296875  Q 55.71875 13.875 49.015625 6.21875  Q 42.328125 -1.421875 30.609375 -1.421875  Q 18.84375 -1.421875 12.171875 6.21875  Q 5.515625 13.875 5.515625 27.296875  Q 5.515625 40.765625 12.171875 48.375  Q 18.84375 56 30.609375 56  z " id="DejaVuSans-111" />
       <path d="M 44.28125 53.078125  L 44.28125 44.578125  Q 40.484375 46.53125 36.375 47.5  Q 32.28125 48.484375 27.875 48.484375  Q 21.1875 48.484375 17.84375 46.4375  Q 14.5 44.390625 14.5 40.28125  Q 14.5 37.15625 16.890625 35.375  Q 19.28125 33.59375 26.515625 31.984375  L 29.59375 31.296875  Q 39.15625 29.25 43.1875 25.515625  Q 47.21875 21.78125 47.21875 15.09375  Q 47.21875 7.46875 41.1875 3.015625  Q 35.15625 -1.421875 24.609375 -1.421875  Q 20.21875 -1.421875 15.453125 -0.5625  Q 10.6875 0.296875 5.421875 2  L 5.421875 11.28125  Q 10.40625 8.6875 15.234375 7.390625  Q 20.0625 6.109375 24.8125 6.109375  Q 31.15625 6.109375 34.5625 8.28125  Q 37.984375 10.453125 37.984375 14.40625  Q 37.984375 18.0625 35.515625 20.015625  Q 33.0625 21.96875 24.703125 23.78125  L 21.578125 24.515625  Q 13.234375 26.265625 9.515625 29.90625  Q 5.8125 33.546875 5.8125 39.890625  Q 5.8125 47.609375 11.28125 51.796875  Q 16.75 56 26.8125 56  Q 31.78125 56 36.171875 55.265625  Q 40.578125 54.546875 44.28125 53.078125  z " id="DejaVuSans-115" />
      </defs>
      <use xlink:href="#DejaVuSans-80" />
      <use x="56.677734" xlink:href="#DejaVuSans-111" />
      <use x="117.859375" xlink:href="#DejaVuSans-115" />
      <use x="169.958984" xlink:href="#DejaVuSans-105" />
      <use x="197.742188" xlink:href="#DejaVuSans-116" />
      <use x="236.951172" xlink:href="#DejaVuSans-105" />
      <use x="264.734375" xlink:href="#DejaVuSans-118" />
      <use x="323.914062" xlink:href="#DejaVuSans-101" />
     </g>
    </g>
   </g>
  </g>
 </g>
</svg></g>
</g>
</svg>